<svg width="110" height="107" viewBox="0 0 110 107" fill="none" xmlns="http://www.w3.org/2000/svg">
<path d="M44.5844 0.0410006C44.4591 0.0970007 44.4404 0.187668 44.4404 0.737002C44.4404 1.03034 44.4297 1.257 44.4111 1.31034C44.3524 1.473 44.4057 1.47034 42.2431 1.47034C41.0111 1.47034 40.2591 1.481 40.2137 1.497C40.0884 1.545 40.0671 1.65434 40.0671 2.22234C40.0671 2.76901 40.0564 2.81701 39.9311 2.88367C39.8964 2.90501 39.2457 2.91301 37.9124 2.91034C36.0884 2.91034 35.9417 2.91301 35.8537 2.95567C35.715 3.02767 35.6964 3.11034 35.6964 3.70234C35.6937 4.20367 35.6937 4.21434 35.6297 4.28901L35.5657 4.36367L33.5257 4.37701C31.5657 4.39034 31.483 4.39301 31.4297 4.44101C31.339 4.52368 31.3177 4.67034 31.323 5.17168C31.3284 5.51301 31.3204 5.65968 31.2964 5.70501C31.2217 5.84101 31.1737 5.84634 29.843 5.84101C28.9257 5.83834 28.5924 5.84634 28.5497 5.87034C28.435 5.93168 28.4137 6.04101 28.4137 6.60368V7.12901L28.3364 7.20635L28.259 7.28368H27.7337C27.1577 7.28368 27.0484 7.30501 27.0004 7.43035C26.9844 7.47035 26.9737 7.72368 26.9737 7.99835C26.9737 8.54502 26.9497 8.64902 26.8137 8.71568C26.763 8.74235 26.443 8.75035 25.5017 8.75035C24.6457 8.75035 24.235 8.75835 24.1924 8.77968C24.0697 8.83568 24.0537 8.91302 24.051 9.43568C24.0457 10.241 24.0777 10.2037 23.371 10.193C22.8217 10.185 22.6884 10.2117 22.6297 10.3397C22.611 10.3824 22.6004 10.5904 22.6004 10.9077C22.6004 11.2064 22.5897 11.4437 22.571 11.4944C22.5204 11.641 22.451 11.657 21.8804 11.657C21.2804 11.657 21.2057 11.6757 21.163 11.8357C21.147 11.8917 21.1337 12.1557 21.1337 12.425C21.1337 12.9744 21.1177 13.0437 20.9684 13.0944C20.907 13.1157 20.507 13.1237 19.6483 13.1237C18.8617 13.121 18.3977 13.129 18.3657 13.1477C18.2457 13.2117 18.2403 13.2384 18.227 13.849L18.2137 14.4357L18.139 14.4997C18.0643 14.5637 18.0563 14.5637 17.539 14.5637C16.7497 14.5637 16.763 14.5477 16.763 15.3557C16.7603 15.857 16.7603 15.8677 16.6963 15.9424L16.6323 16.017L16.043 16.0304C15.2697 16.049 15.339 15.9824 15.3203 16.7317C15.3043 17.3744 15.2937 17.4197 15.115 17.4677C15.051 17.4864 14.8537 17.4917 14.587 17.481C14.0777 17.4624 13.9737 17.4837 13.9017 17.6304C13.859 17.7157 13.8537 17.8357 13.8537 18.9584C13.8537 20.321 13.8537 20.3184 13.691 20.3744C13.6403 20.393 13.403 20.4037 13.1043 20.4037C12.7923 20.4037 12.579 20.4144 12.539 20.433C12.4163 20.489 12.4003 20.5637 12.3977 21.1237C12.3977 21.409 12.387 21.6704 12.3763 21.705C12.3363 21.825 12.2403 21.8437 11.659 21.8517C11.0697 21.857 11.0243 21.8677 10.9737 22.0144C10.9603 22.057 10.947 22.3104 10.947 22.577C10.947 22.8624 10.9337 23.097 10.9177 23.1477C10.867 23.2944 10.795 23.3104 10.2323 23.3104C9.955 23.3104 9.69366 23.3237 9.651 23.337C9.491 23.393 9.49366 23.3637 9.48033 24.785L9.467 26.089L9.39233 26.153C9.31766 26.217 9.30966 26.217 8.79766 26.217C8.22433 26.217 8.115 26.2384 8.06699 26.3637C8.05099 26.4037 8.04033 26.657 8.04033 26.9317C8.04033 27.353 8.03233 27.4437 7.99233 27.5237C7.92033 27.673 7.87233 27.6837 7.30166 27.6837C7.02166 27.6837 6.76033 27.6944 6.72033 27.7104C6.57899 27.7637 6.57366 27.8117 6.57366 29.1504C6.57366 30.4517 6.57099 30.4944 6.44833 30.5531C6.42166 30.5664 6.14699 30.5824 5.83766 30.5904C5.20299 30.6064 5.18432 30.6117 5.13366 30.8064C5.11499 30.8704 5.10699 31.6064 5.10699 32.8411C5.10966 34.0757 5.09899 34.7931 5.08299 34.8251C5.01899 34.9451 4.98966 34.9504 4.38432 34.9637C3.82165 34.9771 3.80032 34.9797 3.74165 35.0384L3.68032 35.0997L3.66699 37.1371L3.65365 39.1771L3.57899 39.2491L3.50699 39.3237L2.96032 39.3317C2.66165 39.3344 2.38432 39.3504 2.34698 39.3637C2.19498 39.4224 2.20032 39.2704 2.20032 42.9904C2.20032 46.7504 2.21098 46.5264 2.03765 46.5877C1.98432 46.6064 1.72298 46.6171 1.35765 46.6171H0.760315V52.4598V58.3024L1.33898 58.2971C2.08565 58.2891 2.03232 58.2838 2.12298 58.3744L2.20032 58.4518V64.0758C2.20032 69.3745 2.20298 69.7025 2.24832 69.7905C2.32032 69.9371 2.42165 69.9585 2.94699 69.9425C3.46432 69.9265 3.54965 69.9451 3.61899 70.0838C3.66432 70.1691 3.66699 70.3238 3.66699 72.1291C3.66699 73.3051 3.67765 74.1078 3.69365 74.1478C3.74699 74.2945 3.81365 74.3078 4.36032 74.2998C4.89899 74.2945 5.01899 74.3158 5.07766 74.4278C5.09899 74.4651 5.10966 74.8865 5.11499 75.7585C5.12032 76.9211 5.12566 77.0385 5.16566 77.1051C5.23766 77.2118 5.37366 77.2358 5.90699 77.2278C6.42433 77.2198 6.49366 77.2358 6.54699 77.3798C6.56299 77.4198 6.57366 77.9558 6.57366 78.6678C6.57366 79.5105 6.58433 79.9158 6.60299 79.9771C6.65366 80.1185 6.73899 80.1371 7.32033 80.1371C7.90699 80.1371 7.96566 80.1531 8.01099 80.3185C8.02966 80.3798 8.04033 80.8785 8.04033 81.6491V82.8811L8.10433 82.9558L8.16833 83.0305L8.76033 83.0438L9.35233 83.0571L9.41633 83.1318L9.48033 83.2065V84.4385C9.48033 85.2065 9.491 85.7078 9.507 85.7691C9.523 85.8251 9.563 85.8838 9.595 85.9025C9.635 85.9265 9.835 85.9425 10.219 85.9505L10.787 85.9638L10.859 86.0385L10.9337 86.1105L10.947 86.6785C10.955 87.0545 10.971 87.2625 10.9923 87.2998C11.0483 87.3985 11.1657 87.4172 11.6963 87.4172C12.011 87.4172 12.2217 87.4278 12.2643 87.4465C12.379 87.4998 12.3977 87.6012 12.4003 88.1505C12.4003 88.7372 12.4163 88.7958 12.587 88.8518C12.6697 88.8812 12.8003 88.8838 13.139 88.8732C13.6323 88.8545 13.7657 88.8785 13.8243 89.0065C13.843 89.0492 13.8537 89.2572 13.8537 89.5745C13.8537 90.1052 13.8723 90.2225 13.971 90.2785C14.0083 90.2998 14.2163 90.3158 14.5923 90.3238L15.1603 90.3372L15.2323 90.4118L15.307 90.4838L15.3203 91.0518C15.3283 91.4278 15.3443 91.6358 15.3657 91.6732C15.4217 91.7718 15.539 91.7905 16.0697 91.7905C16.603 91.7905 16.6803 91.8038 16.731 91.9158C16.7497 91.9532 16.7603 92.1718 16.763 92.4785C16.763 92.7905 16.7763 93.0118 16.795 93.0705C16.8457 93.2225 16.907 93.2358 17.523 93.2412L18.067 93.2438L18.139 93.3185L18.2137 93.3905L18.227 93.9585C18.235 94.3345 18.251 94.5425 18.2723 94.5798C18.3283 94.6785 18.4457 94.6972 18.9763 94.6972C19.275 94.6972 19.5043 94.7078 19.5417 94.7265C19.6697 94.7852 19.6803 94.8332 19.6803 95.4038C19.6803 96.0092 19.6963 96.0758 19.8537 96.1292C19.9177 96.1532 20.099 96.1612 20.427 96.1585C20.9497 96.1505 21.051 96.1692 21.1044 96.2865C21.123 96.3292 21.1337 96.5398 21.1337 96.8545C21.1337 97.3852 21.1524 97.5025 21.251 97.5585C21.2884 97.5798 21.4964 97.5958 21.8724 97.6038L22.4404 97.6172L22.5124 97.6918L22.587 97.7638L22.6004 98.3318C22.6084 98.7078 22.6244 98.9158 22.6457 98.9532C22.7017 99.0518 22.819 99.0705 23.3497 99.0705C23.6644 99.0705 23.875 99.0812 23.9177 99.0998C24.027 99.1505 24.0457 99.2412 24.0484 99.8092C24.0537 100.38 24.067 100.439 24.195 100.487C24.243 100.505 24.6857 100.513 25.4857 100.511C26.8004 100.508 26.8484 100.511 26.9257 100.649C26.9497 100.692 26.963 100.876 26.9737 101.276C26.987 101.82 26.9897 101.844 27.0484 101.903L27.1097 101.964L28.4084 101.977C29.3657 101.988 29.723 101.999 29.763 102.023C29.8617 102.079 29.8804 102.196 29.8804 102.716C29.8804 103.3 29.8964 103.364 30.0617 103.412C30.1417 103.436 30.4964 103.444 31.387 103.444C32.715 103.441 32.7017 103.439 32.7604 103.593C32.7764 103.631 32.787 103.881 32.787 104.153C32.787 104.7 32.811 104.809 32.9337 104.857C32.9764 104.873 33.483 104.884 34.2297 104.884C35.5657 104.884 35.6137 104.889 35.667 105.031C35.683 105.071 35.6937 105.324 35.6937 105.599C35.6937 106.145 35.7177 106.249 35.8537 106.316C35.9044 106.343 36.515 106.351 38.6137 106.351C41.6484 106.351 41.4591 106.364 41.5284 106.153C41.5551 106.073 41.5604 104.756 41.5551 99.7265C41.5471 93.7665 41.5444 93.3985 41.5017 93.3318C41.4324 93.2252 41.3071 93.2038 40.7924 93.2038C40.2937 93.2038 40.1817 93.2278 40.1151 93.3425C40.0911 93.3852 40.0777 93.5692 40.0671 93.9692C40.0537 94.5132 40.0511 94.5372 39.9924 94.5958L39.9311 94.6572H38.6244H37.315L37.251 94.5825C37.187 94.5078 37.187 94.4998 37.187 93.9825C37.187 93.1878 37.195 93.1958 36.387 93.2092C35.8244 93.2172 35.771 93.2332 35.723 93.4092C35.707 93.4652 35.6937 93.7345 35.6937 94.0092C35.6937 94.4972 35.6937 94.5078 35.6297 94.5825L35.5657 94.6572H34.2564H32.9497L32.8884 94.5958C32.8297 94.5372 32.827 94.5158 32.8137 93.9532C32.803 93.4892 32.7924 93.3612 32.7604 93.3238C32.659 93.2012 32.659 93.2012 30.587 93.2038C29.307 93.2065 28.6137 93.1985 28.579 93.1798C28.459 93.1158 28.4537 93.0892 28.4404 92.4812C28.427 91.9185 28.4244 91.8972 28.3657 91.8385L28.3044 91.7772L27.0057 91.7638C26.291 91.7558 25.6857 91.7398 25.659 91.7265C25.5524 91.6758 25.5337 91.5772 25.5337 91.0652C25.5337 90.7958 25.5204 90.5345 25.507 90.4812C25.4617 90.3158 25.3844 90.2972 24.787 90.2972C24.2537 90.2972 24.155 90.2785 24.1044 90.1718C24.091 90.1452 24.075 89.5398 24.067 88.8252L24.0537 87.5265L23.9924 87.4652C23.9337 87.4065 23.9124 87.4038 23.347 87.3905C22.7817 87.3772 22.7604 87.3745 22.7017 87.3158L22.6404 87.2545L22.627 85.9558C22.619 85.2411 22.603 84.6358 22.5897 84.6091C22.5364 84.4998 22.4377 84.4811 21.9044 84.4838C21.3257 84.4838 21.2404 84.4651 21.1897 84.3238C21.171 84.2625 21.1604 83.8518 21.1577 83.0198C21.155 82.3505 21.147 81.7745 21.1364 81.7398C21.1284 81.7051 21.0857 81.6491 21.043 81.6198C20.9737 81.5665 20.9364 81.5638 20.4297 81.5638C19.8137 81.5638 19.771 81.5531 19.7203 81.3638C19.7043 81.3025 19.6937 81.0518 19.6963 80.7771C19.7017 80.2545 19.6857 80.1905 19.5443 80.1371C19.507 80.1211 19.2483 80.1105 18.971 80.1105C18.419 80.1105 18.3283 80.0918 18.2803 79.9611C18.2643 79.9238 18.2537 79.6731 18.2537 79.4011C18.2537 79.0305 18.243 78.8865 18.2137 78.8145C18.1443 78.6438 18.1363 78.6438 16.763 78.6438C15.9203 78.6438 15.515 78.6358 15.4723 78.6145C15.3443 78.5558 15.3417 78.5238 15.3443 77.1958C15.3443 75.8305 15.3417 75.8491 15.499 75.7878C15.5417 75.7718 16.5763 75.7665 18.283 75.7691L20.9977 75.7771L21.059 75.8385C21.1177 75.8971 21.1204 75.9211 21.1337 76.4651C21.1444 76.9451 21.155 77.0438 21.1924 77.1051C21.267 77.2145 21.4057 77.2385 21.8937 77.2251C22.1284 77.2171 22.3604 77.2225 22.4084 77.2358C22.571 77.2811 22.5844 77.3371 22.6004 77.9691C22.619 78.7185 22.555 78.6518 23.3017 78.6705C23.8937 78.6838 23.9577 78.6971 24.0164 78.8091C24.0377 78.8491 24.0457 79.0225 24.043 79.3425C24.0404 79.6145 24.051 79.8598 24.067 79.9238C24.1177 80.1105 24.1577 80.1211 24.8057 80.1371C25.555 80.1558 25.4884 80.0865 25.507 80.8545C25.5177 81.3798 25.5257 81.4438 25.571 81.4945C25.6537 81.5851 25.7737 81.6011 26.2484 81.5851C26.971 81.5611 26.9737 81.5638 26.9737 82.3611C26.9737 82.8731 26.9737 82.8811 27.0377 82.9558L27.1017 83.0305L27.6937 83.0438L28.2857 83.0571L28.3497 83.1318C28.4137 83.2065 28.4137 83.2145 28.4137 83.7265C28.4137 84.5265 28.403 84.5158 29.1844 84.5078C29.5204 84.5051 29.7017 84.5131 29.7417 84.5345C29.8537 84.5958 29.867 84.6571 29.8804 85.2518L29.8937 85.8225L29.9684 85.8865C30.043 85.9505 30.051 85.9505 30.563 85.9505C31.123 85.9505 31.2324 85.9718 31.2964 86.0865C31.3177 86.1291 31.3284 86.3158 31.331 86.6838C31.3337 87.2678 31.3497 87.3345 31.4964 87.3905C31.539 87.4065 33.139 87.4172 35.7097 87.4172C40.2671 87.4172 40.0031 87.4278 40.0644 87.2572C40.0831 87.2038 40.0937 86.9718 40.0937 86.6651C40.0937 86.1025 40.1097 86.0305 40.2564 85.9798C40.3071 85.9611 40.5444 85.9505 40.8431 85.9505C41.1551 85.9505 41.3684 85.9398 41.4084 85.9211C41.5311 85.8651 41.5471 85.7878 41.5524 85.2331C41.5551 84.9185 41.5684 84.6891 41.5871 84.6438C41.6377 84.5211 41.7151 84.5051 42.2351 84.5078C42.4991 84.5105 42.7551 84.4998 42.8137 84.4838C43.0111 84.4305 43.0004 84.5398 43.0004 82.3371C43.0004 80.2918 43.0031 80.2438 43.1097 80.1745C43.1311 80.1611 43.4084 80.1451 43.7257 80.1371L44.3071 80.1238L44.3791 80.0491L44.4537 79.9771V79.3931C44.4537 78.9158 44.4457 78.8038 44.4137 78.7638C44.3151 78.6438 44.3097 78.6438 42.2297 78.6438H40.2564L40.1817 78.5798L40.1071 78.5158L40.0937 77.9451C40.0804 77.3291 40.0617 77.2491 39.9257 77.2171C39.8937 77.2091 38.9711 77.1985 37.875 77.1958L35.8804 77.1905L35.8084 77.1158L35.7337 77.0438L35.7204 76.4758C35.707 75.8971 35.6937 75.8225 35.595 75.7745C35.5684 75.7611 34.963 75.7451 34.2484 75.7371L32.9497 75.7238L32.8884 75.6625C32.8297 75.6038 32.827 75.5825 32.8137 75.0198C32.7977 74.3638 32.795 74.3505 32.5924 74.2945C32.5257 74.2758 32.0697 74.2678 31.299 74.2731C30.0244 74.2785 29.995 74.2758 29.9364 74.1451C29.9177 74.1051 29.907 73.8945 29.907 73.5958C29.907 73.3291 29.8937 73.0651 29.8777 73.0118C29.8324 72.8465 29.7737 72.8305 29.1924 72.8305C28.9044 72.8305 28.6537 72.8171 28.6057 72.8011C28.4617 72.7505 28.4404 72.6625 28.4404 72.0838C28.4404 71.5131 28.4244 71.4438 28.2777 71.3931C28.227 71.3745 27.9897 71.3638 27.691 71.3638C27.3924 71.3638 27.163 71.3531 27.1257 71.3345C26.9977 71.2758 26.9897 71.2278 26.987 70.6571C26.987 70.2571 26.979 70.1051 26.9497 70.0518C26.8857 69.9291 26.795 69.9105 26.291 69.9185C26.011 69.9238 25.7924 69.9158 25.7257 69.8971C25.5497 69.8518 25.5337 69.7985 25.5337 69.2251C25.5337 68.9558 25.5204 68.6918 25.5044 68.6385C25.459 68.4705 25.403 68.4571 24.8004 68.4571C24.2164 68.4571 24.147 68.4411 24.0964 68.2944C24.0777 68.2358 24.067 67.8118 24.067 66.9878C24.067 66.2758 24.0564 65.7398 24.0404 65.6998C23.987 65.5611 23.9284 65.5478 23.3764 65.5504C22.835 65.5531 22.715 65.5318 22.6564 65.4224C22.6377 65.3851 22.627 64.9691 22.627 64.1451C22.627 63.3798 22.6164 62.8864 22.5977 62.8224C22.5497 62.6438 22.5017 62.6304 21.8937 62.6304C21.4217 62.6304 21.3497 62.6251 21.2857 62.5824C21.243 62.5558 21.2004 62.5051 21.187 62.4678C21.171 62.4251 21.1604 60.5638 21.1604 57.5398C21.1604 54.1558 21.1524 52.6544 21.131 52.5958C21.0804 52.4518 20.9924 52.4304 20.4137 52.4304C19.8217 52.4304 19.7657 52.4171 19.7203 52.2438C19.7017 52.1718 19.6937 51.7318 19.699 50.9318C19.707 49.6331 19.707 49.6438 19.8457 49.5798C19.8857 49.5611 20.1124 49.5504 20.4164 49.5504C20.995 49.5504 21.0804 49.5318 21.131 49.3904C21.1524 49.3264 21.1604 48.5558 21.1604 46.6277C21.1604 44.9931 21.171 43.9291 21.187 43.8864C21.2004 43.8491 21.243 43.7984 21.2857 43.7717C21.3497 43.7291 21.4217 43.7237 21.8937 43.7237C22.5017 43.7237 22.5497 43.7104 22.5977 43.5317C22.6164 43.4677 22.627 42.9744 22.627 42.2091C22.627 41.3851 22.6377 40.9691 22.6564 40.9317C22.715 40.8224 22.835 40.8011 23.3764 40.8037C23.9284 40.8064 23.987 40.7931 24.0404 40.6544C24.0564 40.6171 24.067 40.3664 24.067 40.0944C24.067 39.5637 24.0884 39.4491 24.203 39.3877C24.2457 39.3664 24.4137 39.3584 24.763 39.3611C25.307 39.3664 25.4164 39.3451 25.4857 39.2251C25.515 39.1744 25.523 37.7797 25.5337 31.3184L25.547 23.473L25.6084 23.4117C25.667 23.353 25.691 23.3504 26.235 23.337C26.6217 23.329 26.819 23.313 26.859 23.289C26.9764 23.2224 26.987 23.1664 26.987 22.6037C26.987 21.9957 27.0004 21.9504 27.179 21.897C27.2484 21.8757 27.667 21.8704 28.499 21.8757L29.7204 21.8837L29.7924 21.9584L29.867 22.0304L29.8804 22.5984C29.8937 23.2144 29.9044 23.2597 30.043 23.3077C30.1017 23.329 30.7257 23.337 32.0857 23.337C34.2724 23.337 34.1737 23.329 34.2244 23.5184C34.2404 23.5717 34.2537 23.8357 34.2537 24.1024C34.2537 24.401 34.2644 24.6117 34.283 24.6517C34.3444 24.7877 34.3604 24.7904 35.7124 24.793C36.8484 24.7957 36.979 24.801 37.0404 24.841C37.0777 24.865 37.1204 24.9157 37.1337 24.953C37.1497 24.9904 37.1604 25.249 37.1604 25.5264C37.1604 26.0784 37.179 26.169 37.3097 26.217C37.3497 26.233 37.8937 26.2437 38.6217 26.2437C39.8164 26.2437 39.8697 26.2464 39.9551 26.297C40.0004 26.3264 40.0431 26.353 40.0457 26.3557C40.0457 26.361 40.0564 26.6304 40.0644 26.9557L40.0804 27.5504L40.1551 27.6224L40.2271 27.697H43.7044C47.5017 27.697 47.2884 27.705 47.3471 27.5424C47.3604 27.497 47.3737 27.2464 47.3737 26.9717C47.3737 26.409 47.3951 26.3237 47.5337 26.273C47.6591 26.2304 63.0884 26.2304 63.2138 26.273C63.3524 26.3237 63.3738 26.409 63.3738 26.9717C63.3738 27.2464 63.3871 27.497 63.4004 27.5424C63.4591 27.705 63.2458 27.697 67.0431 27.697H70.5204L70.5924 27.6224L70.6671 27.5504L70.6831 26.9557C70.6911 26.6304 70.7018 26.361 70.7018 26.3557C70.7044 26.353 70.7471 26.3264 70.7951 26.297C70.8778 26.2464 70.9311 26.2437 72.1258 26.2437C72.8538 26.2437 73.3978 26.233 73.4378 26.217C73.5684 26.169 73.5871 26.0784 73.5871 25.5264C73.5871 25.249 73.5978 24.9904 73.6138 24.953C73.6271 24.9157 73.6698 24.865 73.7071 24.841C73.7711 24.7984 73.8964 24.7957 75.0351 24.793C76.3871 24.7904 76.4031 24.7877 76.4645 24.6517C76.4831 24.6117 76.4938 24.401 76.4938 24.1024C76.4938 23.8357 76.5071 23.5717 76.5231 23.5184C76.5738 23.329 76.4751 23.337 78.6618 23.337C80.0218 23.337 80.6458 23.329 80.7045 23.3077C80.8431 23.2597 80.8538 23.2144 80.8671 22.5984L80.8805 22.0304L80.9551 21.9584L81.0271 21.8837L82.2485 21.8757C83.0778 21.8704 83.4991 21.8757 83.5685 21.897C83.7471 21.9504 83.7605 21.9957 83.7605 22.6037C83.7605 23.1664 83.7711 23.2224 83.8885 23.289C83.9285 23.313 84.1258 23.329 84.5125 23.337C85.0565 23.3504 85.0805 23.353 85.1391 23.4117L85.2005 23.473L85.2138 31.3184C85.2245 37.7797 85.2325 39.1744 85.2618 39.2251C85.3311 39.3451 85.4405 39.3664 85.9845 39.3611C86.3338 39.3584 86.5018 39.3664 86.5445 39.3877C86.6591 39.4491 86.6805 39.5637 86.6805 40.1024C86.6805 40.4517 86.6911 40.6251 86.7151 40.6704C86.7765 40.7931 86.8565 40.8091 87.3871 40.8037C87.9125 40.8011 88.0325 40.8251 88.0911 40.9317C88.1098 40.9691 88.1205 41.3851 88.1205 42.2091C88.1205 42.9744 88.1311 43.4677 88.1498 43.5317C88.1978 43.7104 88.2458 43.7237 88.8538 43.7237C89.3258 43.7237 89.3978 43.7291 89.4618 43.7717C89.5045 43.7984 89.5471 43.8491 89.5605 43.8864C89.5765 43.9291 89.5871 45.2624 89.5871 47.3637C89.5871 49.4651 89.5978 50.7984 89.6138 50.8411C89.6698 50.9878 89.7365 51.0038 90.3231 51.0064C90.9338 51.0064 90.9765 51.0198 91.0245 51.1958C91.0618 51.3318 91.0645 53.5504 91.0271 53.6811C90.9738 53.8784 90.9578 53.8811 90.3098 53.8971C89.9925 53.9051 89.7178 53.9211 89.6965 53.9344C89.5845 54.0064 89.5871 53.9264 89.5871 58.2678C89.5871 60.8304 89.5765 62.4251 89.5605 62.4678C89.5471 62.5051 89.5045 62.5558 89.4618 62.5824C89.3978 62.6251 89.3258 62.6304 88.8538 62.6304C88.2458 62.6304 88.1978 62.6438 88.1498 62.8224C88.1311 62.8864 88.1205 63.3798 88.1205 64.1451C88.1205 64.9691 88.1098 65.3851 88.0911 65.4224C88.0325 65.5318 87.9125 65.5531 87.3711 65.5504C86.8191 65.5478 86.7605 65.5611 86.7071 65.6998C86.6911 65.7398 86.6805 66.2758 86.6805 66.9878C86.6805 67.8118 86.6698 68.2358 86.6511 68.2944C86.6005 68.4411 86.5285 68.4571 85.9658 68.4571C85.6591 68.4571 85.4271 68.4678 85.3738 68.4865C85.2325 68.5371 85.2138 68.6225 85.2138 69.2038C85.2138 69.8011 85.2005 69.8518 85.0218 69.8971C84.9551 69.9158 84.7365 69.9238 84.4565 69.9185C83.9525 69.9105 83.8591 69.9291 83.7978 70.0518C83.7711 70.1051 83.7605 70.2651 83.7605 70.6571C83.7578 71.2278 83.7471 71.2758 83.6218 71.3345C83.5818 71.3531 83.3551 71.3638 83.0511 71.3638C82.4725 71.3638 82.3871 71.3825 82.3365 71.5238C82.3178 71.5771 82.3071 71.8038 82.3071 72.0971C82.3071 72.3905 82.2965 72.6171 82.2778 72.6705C82.2271 72.8118 82.1418 72.8305 81.5605 72.8305C80.9738 72.8305 80.9151 72.8465 80.8698 73.0118C80.8538 73.0651 80.8405 73.3291 80.8405 73.5958C80.8405 73.8945 80.8298 74.1051 80.8111 74.1451C80.7525 74.2758 80.7231 74.2785 79.4485 74.2731C78.6778 74.2678 78.2218 74.2758 78.1551 74.2945C77.9525 74.3505 77.9498 74.3638 77.9338 75.0198C77.9205 75.5825 77.9178 75.6038 77.8591 75.6625L77.7978 75.7238L76.4991 75.7371C75.7845 75.7451 75.1791 75.7611 75.1525 75.7745C75.0538 75.8225 75.0405 75.8971 75.0271 76.4758L75.0138 77.0438L74.9391 77.1158L74.8671 77.1905L72.1391 77.1958C70.1391 77.2011 69.3951 77.2118 69.3391 77.2331C69.2111 77.2865 69.2004 77.3371 69.1951 77.9105C69.1871 78.4785 69.1711 78.5638 69.0644 78.6145C69.0191 78.6358 68.6271 78.6438 67.7711 78.6438C66.8058 78.6438 66.5284 78.6518 66.4591 78.6785C66.2964 78.7478 66.2938 78.7558 66.2938 79.3931V79.9771L66.3684 80.0491L66.4404 80.1238L67.0218 80.1371C67.3391 80.1451 67.6164 80.1611 67.6378 80.1745C67.7444 80.2438 67.7471 80.2918 67.7471 82.3371C67.7471 84.5398 67.7364 84.4305 67.9338 84.4838C67.9924 84.4998 68.2484 84.5105 68.5124 84.5078C69.0244 84.5051 69.1044 84.5211 69.1578 84.6358C69.1791 84.6838 69.1871 87.5585 69.1898 95.3852C69.1898 103.604 69.1978 106.092 69.2218 106.164C69.2431 106.228 69.2831 106.273 69.3471 106.303C69.4351 106.348 69.6218 106.351 72.1338 106.351C74.2324 106.351 74.8431 106.343 74.8938 106.316C75.0298 106.249 75.0538 106.145 75.0538 105.599C75.0538 105.324 75.0645 105.071 75.0805 105.031C75.1338 104.889 75.1818 104.884 76.5178 104.884C77.2645 104.884 77.7711 104.873 77.8138 104.857C77.9365 104.809 77.9605 104.7 77.9605 104.153C77.9605 103.881 77.9711 103.631 77.9871 103.593C78.0458 103.439 78.0325 103.441 79.3605 103.444C80.2511 103.444 80.6058 103.436 80.6858 103.412C80.8511 103.364 80.8671 103.3 80.8671 102.716C80.8671 102.196 80.8858 102.079 80.9845 102.023C81.0245 101.999 81.3818 101.988 82.3391 101.977L83.6378 101.964L83.6991 101.903C83.7578 101.844 83.7605 101.82 83.7738 101.276C83.7845 100.876 83.7978 100.692 83.8218 100.649C83.8991 100.511 83.9471 100.508 85.2618 100.511C86.0618 100.513 86.5045 100.505 86.5525 100.487C86.6805 100.439 86.6938 100.38 86.6991 99.8038C86.7045 99.4945 86.7178 99.2412 86.7338 99.2012C86.7818 99.0838 86.8565 99.0705 87.3978 99.0705C87.9285 99.0705 88.0458 99.0518 88.1018 98.9532C88.1231 98.9158 88.1391 98.7078 88.1471 98.3318L88.1605 97.7638L88.2351 97.6918L88.3071 97.6172L88.8751 97.6038C89.2511 97.5958 89.4591 97.5798 89.4965 97.5585C89.5951 97.5025 89.6138 97.3852 89.6138 96.8545C89.6138 96.5398 89.6245 96.3292 89.6431 96.2865C89.6965 96.1718 89.7925 96.1558 90.3578 96.1532C90.8085 96.1505 90.8938 96.1452 90.9525 96.1052C91.0591 96.0358 91.0911 95.8358 91.0698 95.3612C91.0538 95.0465 91.0591 94.9505 91.0885 94.8758C91.1605 94.7052 91.1925 94.6972 91.7631 94.6972C92.3018 94.6972 92.4191 94.6785 92.4751 94.5798C92.4965 94.5425 92.5125 94.3345 92.5205 93.9585L92.5338 93.3905L92.6085 93.3185L92.6805 93.2438L93.2245 93.2412C93.8485 93.2358 93.9125 93.2198 93.9578 93.0492C93.9738 92.9958 93.9872 92.7318 93.9872 92.4652C93.9872 91.9478 94.0032 91.8705 94.1125 91.8198C94.1525 91.8012 94.3658 91.7905 94.6778 91.7905C95.2085 91.7905 95.3258 91.7718 95.3818 91.6732C95.4032 91.6358 95.4192 91.4278 95.4272 91.0518L95.4405 90.4838L95.5152 90.4118L95.5872 90.3372L96.1552 90.3238C96.5312 90.3158 96.7392 90.2998 96.7765 90.2785C96.8752 90.2225 96.8938 90.1052 96.8938 89.5665C96.8938 88.9985 96.9018 88.9638 97.0725 88.8945C97.1445 88.8625 97.2538 88.8598 97.6085 88.8732C97.9472 88.8838 98.0778 88.8812 98.1605 88.8518C98.3312 88.7958 98.3472 88.7398 98.3498 88.1478C98.3525 87.5958 98.3712 87.4998 98.4832 87.4465C98.5258 87.4278 98.7365 87.4172 99.0512 87.4172C99.5818 87.4172 99.6992 87.3985 99.7552 87.2998C99.7765 87.2625 99.7925 87.0545 99.8005 86.6785L99.8138 86.1105L99.8885 86.0385L99.9605 85.9638L100.528 85.9505C100.912 85.9425 101.112 85.9265 101.152 85.9025C101.184 85.8838 101.224 85.8251 101.24 85.7691C101.256 85.7078 101.267 85.2065 101.267 84.4385V83.2065L101.331 83.1318L101.395 83.0571L101.987 83.0438L102.579 83.0305L102.643 82.9558L102.707 82.8811V81.6491C102.707 80.8785 102.718 80.3798 102.737 80.3185C102.782 80.1531 102.841 80.1371 103.427 80.1371C104.009 80.1371 104.094 80.1185 104.145 79.9771C104.163 79.9158 104.174 79.5105 104.174 78.6678C104.174 77.9558 104.185 77.4198 104.201 77.3798C104.254 77.2358 104.323 77.2198 104.841 77.2278C105.374 77.2358 105.51 77.2118 105.582 77.1051C105.622 77.0385 105.627 76.9211 105.633 75.7585C105.638 74.8865 105.649 74.4651 105.67 74.4278C105.729 74.3158 105.849 74.2945 106.387 74.2998C106.934 74.3078 107.001 74.2945 107.054 74.1478C107.07 74.1078 107.081 73.3051 107.081 72.1291C107.081 70.3238 107.083 70.1691 107.129 70.0838C107.198 69.9451 107.283 69.9265 107.801 69.9425C108.326 69.9585 108.427 69.9371 108.499 69.7905C108.545 69.7025 108.547 69.3745 108.547 64.0758V58.4518L108.625 58.3744C108.715 58.2838 108.662 58.2891 109.409 58.2971L109.987 58.3024V52.4598V46.6171H109.39C109.025 46.6171 108.763 46.6064 108.71 46.5877C108.537 46.5264 108.547 46.7504 108.547 42.9904C108.547 39.2704 108.553 39.4224 108.401 39.3637C108.363 39.3504 108.086 39.3344 107.787 39.3317L107.241 39.3237L107.169 39.2491L107.094 39.1771L107.081 37.1371L107.067 35.0997L107.006 35.0384C106.947 34.9797 106.926 34.9771 106.363 34.9637C105.758 34.9504 105.729 34.9451 105.665 34.8251C105.649 34.7931 105.638 34.0757 105.641 32.8411C105.641 31.6064 105.633 30.8704 105.614 30.8064C105.563 30.6117 105.545 30.6064 104.91 30.5904C104.601 30.5824 104.326 30.5664 104.299 30.5531C104.193 30.5024 104.174 30.4037 104.171 29.8784C104.169 29.6037 104.161 29.3477 104.15 29.3131C104.142 29.2784 104.099 29.2224 104.059 29.1931C103.987 29.1397 103.947 29.1371 103.441 29.1344C102.825 29.1317 102.785 29.1184 102.737 28.9451C102.718 28.8811 102.707 28.393 102.707 27.6384C102.707 26.905 102.697 26.4064 102.681 26.3637C102.633 26.2384 102.523 26.217 101.947 26.217H101.422L101.344 26.1397L101.267 26.0624V24.8197C101.267 23.433 101.262 23.3957 101.102 23.3397C101.054 23.3237 100.803 23.3104 100.515 23.3104C99.9525 23.3104 99.8805 23.2944 99.8298 23.1477C99.8138 23.097 99.8005 22.8624 99.8005 22.577C99.8005 22.3104 99.7872 22.057 99.7738 22.0144C99.7232 21.8677 99.6778 21.857 99.0885 21.8517C98.4912 21.8437 98.4032 21.825 98.3685 21.689C98.3605 21.649 98.3498 21.3904 98.3498 21.1104C98.3472 20.5637 98.3312 20.489 98.2085 20.433C98.1685 20.4144 97.9552 20.4037 97.6432 20.4037C97.3445 20.4037 97.1072 20.393 97.0565 20.3744C96.8938 20.3184 96.8938 20.321 96.8938 18.9584C96.8938 17.8357 96.8885 17.7157 96.8458 17.6304C96.7738 17.4837 96.6698 17.4624 96.1605 17.481C95.8938 17.4917 95.6965 17.4864 95.6325 17.4677C95.4538 17.4197 95.4432 17.3744 95.4272 16.7317C95.4085 15.9824 95.4778 16.049 94.7045 16.0304L94.1152 16.017L94.0512 15.9424C93.9872 15.8677 93.9872 15.857 93.9845 15.3557C93.9845 14.5477 93.9978 14.5637 93.2085 14.5637C92.6911 14.5637 92.6831 14.5637 92.6085 14.4997L92.5338 14.4357L92.5205 13.849C92.5071 13.2384 92.5018 13.2117 92.3818 13.1477C92.3498 13.129 91.8858 13.121 91.0991 13.1237C90.2405 13.1237 89.8405 13.1157 89.7791 13.0944C89.6298 13.0437 89.6138 12.9744 89.6138 12.425C89.6138 12.1557 89.6005 11.8917 89.5845 11.8357C89.5418 11.6757 89.4671 11.657 88.8671 11.657C88.2965 11.657 88.2271 11.641 88.1765 11.4944C88.1578 11.4437 88.1471 11.2064 88.1471 10.9077C88.1471 10.5904 88.1365 10.3824 88.1178 10.3397C88.0591 10.2117 87.9258 10.185 87.3765 10.193C87.0378 10.1984 86.8618 10.1904 86.8245 10.169C86.7231 10.1157 86.7045 10.0117 86.6991 9.47035C86.6938 8.91302 86.6778 8.83568 86.5551 8.77968C86.5125 8.75835 86.1018 8.75035 85.2458 8.75035C84.3045 8.75035 83.9845 8.74235 83.9338 8.71568C83.7978 8.64902 83.7738 8.54502 83.7738 7.99835C83.7738 7.72368 83.7631 7.47035 83.7471 7.43035C83.6938 7.28901 83.6458 7.28368 82.3098 7.28368C81.5631 7.28368 81.0565 7.27301 81.0138 7.25701C80.8911 7.20901 80.8671 7.09968 80.8671 6.55301C80.8671 6.28101 80.8565 6.03034 80.8405 5.99301C80.8271 5.95568 80.7845 5.90501 80.7418 5.87834C80.6778 5.83568 80.6138 5.83034 80.1711 5.83834C79.6298 5.84901 79.5178 5.82768 79.4511 5.70501C79.4271 5.65968 79.4191 5.51301 79.4245 5.17168C79.4298 4.67034 79.4085 4.52368 79.3178 4.44101C79.2645 4.39301 79.1818 4.39034 77.2218 4.37701L75.1818 4.36367L75.1178 4.28901C75.0538 4.21434 75.0538 4.20367 75.0511 3.70234C75.0511 3.11034 75.0325 3.02767 74.8938 2.95567C74.8058 2.91301 74.6591 2.91034 72.8351 2.91034C71.5018 2.91301 70.8511 2.90501 70.8164 2.88367C70.6911 2.81701 70.6804 2.76901 70.6804 2.22234C70.6804 1.65434 70.6591 1.545 70.5338 1.497C70.4884 1.481 69.7364 1.47034 68.5044 1.47034C66.3418 1.47034 66.3951 1.473 66.3364 1.31034C66.3178 1.257 66.3071 1.03034 66.3071 0.737002C66.3071 0.179668 66.2884 0.094334 66.1578 0.0410006C66.0271 -0.0149995 44.7097 -0.0123328 44.5844 0.0410006Z" fill="white"/>
</svg>
