<svg width="114" height="114" viewBox="0 0 114 114" fill="none" xmlns="http://www.w3.org/2000/svg">
<g clip-path="url(#clip0_28_26)">
<path d="M30.3073 0.695124V1.39025H25.8585H21.4098L21.2429 2.22439C21.0761 3.00293 20.9927 3.05854 19.7137 3.05854C18.5459 3.05854 18.379 3.14195 18.2956 3.67025C18.2122 4.22634 18.0176 4.30976 16.7663 4.39317C15.4317 4.47659 15.3205 4.5322 15.2371 5.22732C15.1537 5.92244 15.0424 5.97805 13.7078 6.06147C12.3732 6.14488 12.2341 6.20049 12.2341 6.8122C12.2341 7.31268 12.0673 7.47951 11.4834 7.56293C10.8717 7.61854 10.6771 7.81317 10.6215 8.39707C10.538 9.00878 10.3712 9.17561 9.84293 9.17561C9.31463 9.17561 9.17561 9.31464 9.17561 9.84293C9.17561 10.3712 9.00878 10.5381 8.42488 10.6215C7.70195 10.7049 7.64634 10.8161 7.56293 12.1507C7.47951 13.4854 7.4239 13.6244 6.8122 13.6244C6.31171 13.6244 6.14488 13.7912 6.06146 14.3751C6.00585 14.9868 5.81122 15.1815 5.22732 15.2371C4.5322 15.3205 4.47659 15.4317 4.39317 16.7663C4.30976 18.0176 4.22634 18.2122 3.69805 18.2956C3.08634 18.379 3.05854 18.5181 3.05854 20.5756C3.05854 22.7444 3.05854 22.7722 2.3078 22.8556L1.52927 22.939L1.44585 28.1385L1.39024 33.3659H0.695122C0.11122 33.3659 0 33.5049 0 34.2C0 34.8951 0.11122 35.0341 0.695122 35.0341H1.39024V63.0893V91.1722L2.14098 91.2556C2.91951 91.339 2.91951 91.3668 3.00293 93.619C3.08634 95.8434 3.11415 95.9268 3.75366 95.9268C4.36537 95.9268 4.42098 96.0659 4.50439 97.3727C4.5878 98.7351 4.64341 98.8463 5.33854 98.9298C6.03366 99.0132 6.08927 99.1244 6.17268 100.459C6.2561 101.71 6.33951 101.905 6.8678 101.988C7.34049 102.044 7.50732 102.266 7.50732 102.739C7.50732 103.24 7.67415 103.406 8.25805 103.49C8.81415 103.545 9.06439 103.74 9.12 104.185C9.17561 104.574 9.42585 104.824 9.81512 104.88C10.26 104.936 10.4546 105.186 10.5102 105.714C10.5937 106.326 10.7605 106.493 11.261 106.493C11.7337 106.493 11.9561 106.66 12.0117 107.104C12.0951 107.66 12.2898 107.744 13.541 107.827C14.8756 107.911 14.9868 107.966 15.0702 108.661C15.1537 109.357 15.2649 109.412 16.6273 109.496C17.962 109.579 18.0732 109.635 18.0732 110.274C18.0732 110.886 18.1566 110.941 19.5746 110.941C21.0205 110.941 21.1039 110.969 21.1873 111.72L21.2707 112.471L25.8029 112.554L30.3073 112.61V113.305V114H57H83.6927V113.305V112.61H88.1415H92.618L92.7849 111.776L92.9517 110.941H95.1205C97.2893 110.941 97.3171 110.941 97.3171 110.246C97.3171 109.69 97.4561 109.551 97.9844 109.551C98.5127 109.551 98.6795 109.384 98.7629 108.773C98.8463 108.078 98.9576 108.022 100.32 107.939C101.627 107.855 101.766 107.8 101.766 107.188C101.766 106.687 101.933 106.52 102.544 106.437C103.128 106.381 103.323 106.187 103.379 105.575C103.462 104.991 103.629 104.824 104.157 104.824C104.685 104.824 104.824 104.685 104.824 104.157C104.824 103.629 104.991 103.462 105.603 103.379C106.187 103.323 106.381 103.128 106.437 102.517C106.52 101.933 106.687 101.766 107.188 101.766C107.8 101.766 107.855 101.627 107.939 100.32C108.022 98.9576 108.078 98.8463 108.8 98.7629C109.384 98.6795 109.551 98.5127 109.551 97.9844C109.551 97.4561 109.69 97.3171 110.246 97.3171C110.941 97.3171 110.941 97.2893 110.941 95.1205V92.9239L111.776 92.7571L112.61 92.618V88.8366V85.0829H113.305H114V57V28.9171H113.305H112.61V25.1634V21.382L111.776 21.2151L110.941 21.0483V18.8795C110.941 16.7107 110.941 16.6829 110.246 16.6829C109.69 16.6829 109.551 16.5439 109.551 16.0156C109.551 15.4873 109.384 15.3205 108.8 15.2371C108.078 15.1537 108.022 15.0424 107.939 13.68C107.855 12.3732 107.8 12.2341 107.188 12.2341C106.687 12.2341 106.52 12.0673 106.437 11.4556C106.381 10.8717 106.187 10.6771 105.603 10.6215C104.991 10.5381 104.824 10.3712 104.824 9.84293C104.824 9.31464 104.685 9.17561 104.157 9.17561C103.629 9.17561 103.462 9.00878 103.379 8.39707C103.323 7.81317 103.128 7.61854 102.544 7.56293C101.933 7.47951 101.766 7.31268 101.766 6.8122C101.766 6.20049 101.627 6.14488 100.32 6.06147C98.9576 5.97805 98.8463 5.92244 98.7629 5.19951C98.6795 4.61561 98.5127 4.44878 97.9844 4.44878C97.4561 4.44878 97.3171 4.30976 97.3171 3.75366C97.3171 3.05854 97.2893 3.05854 95.1205 3.05854H92.9517L92.7849 2.22439L92.5902 1.39025H88.1415H83.6927V0.695124V1.80304e-06H57H30.3073V0.695124ZM86.6956 11.4556C86.779 12.2341 86.8068 12.2341 89.0034 12.2341C91.1444 12.2341 91.2 12.262 91.2 12.9015C91.2 13.541 91.3112 13.5966 92.6737 13.68C94.0083 13.7634 94.1195 13.819 94.2029 14.5141C94.2863 15.1259 94.4532 15.2927 94.9815 15.2927C95.5098 15.2927 95.6488 15.4317 95.6488 15.96C95.6488 16.4883 95.8156 16.6551 96.4273 16.7385C97.0112 16.7941 97.2059 16.9888 97.2615 17.5727C97.3449 18.1844 97.5117 18.3512 98.04 18.3512C98.5683 18.3512 98.7073 18.4902 98.7073 19.0185C98.7073 19.5468 98.8741 19.7137 99.458 19.7971C100.014 19.8527 100.264 20.0751 100.376 20.5756C100.487 21.0205 100.765 21.2985 101.154 21.3541C101.738 21.4376 101.766 21.6044 101.766 23.6341C101.766 25.8029 101.766 25.8307 102.544 25.9141L103.295 25.9976L103.379 37.3141L103.434 48.6585H104.129C104.685 48.6585 104.824 48.7976 104.824 49.3537C104.824 49.9098 104.685 50.0488 104.129 50.0488H103.434V56.1659V62.2829H104.157C104.769 62.2829 104.852 62.3941 104.769 63.0337C104.713 63.5898 104.519 63.84 104.074 63.8956L103.434 63.979L103.379 75.9907L103.295 88.0024L102.544 88.0859C101.766 88.1693 101.766 88.1971 101.766 90.3659C101.766 92.3956 101.738 92.5624 101.154 92.6459C100.765 92.7015 100.487 92.9795 100.376 93.4244C100.264 93.9249 100.014 94.1473 99.458 94.2029C98.8741 94.2863 98.7073 94.4532 98.7073 94.9815C98.7073 95.5098 98.5683 95.6488 98.04 95.6488C97.5117 95.6488 97.3449 95.8156 97.2615 96.3995C97.2059 97.0112 97.0112 97.2059 96.4273 97.2615C95.8156 97.3449 95.6488 97.5117 95.6488 98.04C95.6488 98.5683 95.5098 98.7073 94.9815 98.7073C94.4532 98.7073 94.2863 98.8741 94.2029 99.458C94.1195 100.181 94.0083 100.237 92.6737 100.32C91.3112 100.403 91.2 100.459 91.2 101.099C91.2 101.738 91.1444 101.766 89.0034 101.766C86.8068 101.766 86.779 101.766 86.6956 102.517L86.6122 103.295H57H27.3878L27.3044 102.544C27.221 101.766 27.1932 101.766 24.9966 101.766C22.8556 101.766 22.8 101.738 22.8 101.099C22.8 100.459 22.6888 100.403 21.3541 100.32C19.9917 100.237 19.8805 100.181 19.7971 99.458C19.7137 98.8741 19.5468 98.7073 19.0185 98.7073C18.4902 98.7073 18.3512 98.5683 18.3512 98.04C18.3512 97.5117 18.1844 97.3449 17.6005 97.2615C16.9888 97.2059 16.7941 97.0112 16.7385 96.3995C16.6551 95.8156 16.4883 95.6488 15.96 95.6488C15.4317 95.6488 15.2927 95.5098 15.2927 94.9815C15.2927 94.4532 15.1259 94.2863 14.542 94.2029C13.819 94.1195 13.7634 94.0083 13.68 92.6459C13.5966 91.339 13.541 91.2 12.9293 91.2C12.262 91.2 12.262 91.1722 12.1785 88.1971L12.0951 85.222L11.3166 85.1385L10.5659 85.0551V57V28.9449L11.3444 28.8615L12.0951 28.7781L12.1785 25.7751C12.262 22.8278 12.262 22.8 12.9293 22.8C13.541 22.8 13.5966 22.661 13.68 21.3263C13.7634 19.9917 13.819 19.8805 14.542 19.7971C15.1259 19.7137 15.2927 19.5468 15.2927 19.0185C15.2927 18.4902 15.4317 18.3512 15.96 18.3512C16.4883 18.3512 16.6551 18.1844 16.7385 17.5727C16.7941 16.9888 16.9888 16.7941 17.6005 16.7385C18.1844 16.6551 18.3512 16.4883 18.3512 15.96C18.3512 15.4317 18.4902 15.2927 19.0185 15.2927C19.5468 15.2927 19.7137 15.1259 19.7971 14.5141C19.8805 13.819 19.9917 13.7634 21.3541 13.68C22.6888 13.5966 22.8 13.541 22.8 12.9015C22.8 12.262 22.8556 12.2341 25.0244 12.2341C27.1654 12.2341 27.2488 12.2063 27.2488 11.5946C27.2488 11.2332 27.3322 10.8439 27.4434 10.7605C27.5268 10.6493 40.901 10.5937 57.1112 10.6215L86.6122 10.7049L86.6956 11.4556Z" fill="white"/>
<path d="M85.0829 20.4088C85.0829 21.0483 84.9717 21.1039 83.6371 21.1873L82.1634 21.2707L82.08 22.7166C81.9966 24.079 81.941 24.1902 81.3015 24.1902C80.6342 24.1902 80.6342 24.218 80.6342 26.5536C80.6342 28.8893 80.6342 28.9171 81.3015 28.9171C81.941 28.9171 81.9966 29.0283 82.08 30.3629L82.1634 31.8366L83.6371 31.92C84.9717 32.0034 85.0829 32.059 85.0829 32.6985V33.3658H88.1415C91.2 33.3658 91.2 33.3658 91.2 32.6985C91.2 32.1702 91.3668 32.0034 91.9785 31.92C92.5624 31.8644 92.7571 31.6697 92.8127 31.058C92.8961 30.4741 93.0629 30.3073 93.5912 30.3073H94.2585V26.5536V22.8H93.5634C93.0907 22.8 92.8683 22.661 92.8683 22.2995C92.8683 21.66 92.34 21.1317 91.7005 21.1317C91.339 21.1317 91.2 20.9093 91.2 20.4366V19.7415H88.1415H85.0829V20.4088Z" fill="white"/>
<path d="M51.6615 27.9995C51.5781 28.778 51.5503 28.778 49.3537 28.9171C47.3239 29.0561 47.1293 29.1117 47.0459 29.6678C46.9625 30.1961 46.7678 30.2795 45.5166 30.3629C44.182 30.4463 44.0707 30.5019 43.9873 31.1971C43.9039 31.92 43.8205 31.9756 42.5415 31.9756C41.3459 31.9756 41.179 32.059 41.0956 32.5873C41.04 32.9766 40.762 33.2546 40.3171 33.3659C39.8166 33.4771 39.5942 33.7273 39.5385 34.2834C39.4551 35.0063 39.3717 35.0341 37.9259 35.0341C36.5078 35.0341 36.4244 35.0619 36.4244 35.7293C36.4244 36.2854 36.2854 36.4244 35.7293 36.4244C35.062 36.4244 35.0342 36.5078 35.0342 37.9259C35.0342 39.3717 35.0064 39.4551 34.2834 39.5385C33.7273 39.5941 33.4771 39.8166 33.3659 40.3171C33.2546 40.762 32.9766 41.04 32.5873 41.0956C32.059 41.179 31.9756 41.3459 31.9756 42.5415C31.9756 43.8205 31.92 43.9039 31.2249 43.9873C30.502 44.0707 30.4464 44.182 30.3629 45.5166C30.2795 46.7678 30.1961 46.9624 29.6678 47.0459C29.0839 47.1293 29.0561 47.2683 28.9727 50.1044L28.8893 53.0795L28.1385 53.1629C27.5546 53.2185 27.3878 53.3854 27.3878 53.9415C27.3878 54.4976 27.5546 54.6644 28.1664 54.72C28.7503 54.8034 28.9171 54.9702 28.9171 55.4707C28.9171 55.9712 28.7503 56.138 28.1664 56.2215C27.5546 56.2771 27.3878 56.4439 27.3878 57C27.3878 57.5561 27.5546 57.7229 28.1664 57.7785C28.7503 57.862 28.9171 58.0288 28.9171 58.5293C28.9171 59.0298 28.7503 59.1966 28.1664 59.28C27.5546 59.3356 27.3878 59.5024 27.3878 60.0585C27.3878 60.6146 27.5546 60.7815 28.1385 60.8371L28.8893 60.9205L28.9727 63.8956C29.0561 66.7317 29.0839 66.8707 29.6678 66.9541C30.1961 67.0376 30.2795 67.2322 30.3629 68.4834C30.4464 69.818 30.502 69.9293 31.2249 70.0127C31.92 70.0961 31.9756 70.1795 31.9756 71.4585C31.9756 72.6541 32.059 72.821 32.5873 72.9044C32.9766 72.96 33.2546 73.238 33.3659 73.6829C33.4771 74.1834 33.7273 74.4059 34.2834 74.4615C35.0064 74.5449 35.0342 74.6283 35.0342 76.0741C35.0342 77.4922 35.062 77.5756 35.7293 77.5756C36.2854 77.5756 36.4244 77.7146 36.4244 78.2707C36.4244 78.938 36.5078 78.9659 37.9259 78.9659C39.3717 78.9659 39.4551 78.9937 39.5385 79.7166C39.5942 80.2727 39.8166 80.5229 40.3171 80.6341C40.762 80.7454 41.04 81.0234 41.0956 81.4127C41.1512 81.8576 41.3737 82.0244 41.8464 82.0244C42.3468 82.0244 42.5137 82.1912 42.5971 82.7751C42.6805 83.5537 42.7083 83.5537 44.8215 83.6371C46.7678 83.7205 46.9625 83.7761 47.0459 84.3322C47.1293 84.9161 47.2683 84.9439 50.1044 85.0273L53.0795 85.1107L53.1629 85.8615L53.2464 86.6122L57.7507 86.6956L62.2551 86.7512L62.3385 86.0005L62.422 85.222L65.4249 85.1385C68.3722 85.0551 68.4 85.0551 68.4 84.3878C68.4 83.7761 68.539 83.7205 69.8737 83.6371C71.2083 83.5537 71.3195 83.498 71.4029 82.8029C71.4864 82.1912 71.6532 82.0244 72.1537 82.0244C72.6264 82.0244 72.8488 81.8576 72.9044 81.3849C72.9878 80.8566 73.1825 80.7732 74.4337 80.6898C75.7683 80.6063 75.8795 80.5507 75.9629 79.8556C76.0185 79.2717 76.2132 79.0771 76.8249 79.0215C77.4088 78.938 77.5756 78.7712 77.5756 78.2429C77.5756 77.7146 77.7146 77.5756 78.2429 77.5756C78.7712 77.5756 78.9381 77.4088 79.0215 76.8249C79.0771 76.2132 79.2717 76.0185 79.8556 75.9629C80.5507 75.8795 80.6064 75.7683 80.6898 74.4337C80.7732 73.1824 80.8566 72.9878 81.4127 72.9044C81.8576 72.8488 82.0244 72.6263 82.0244 72.1537C82.0244 71.6532 82.1912 71.4863 82.8029 71.4029C83.4981 71.3195 83.5537 71.2083 83.6371 69.8459C83.7205 68.539 83.7761 68.4 84.3878 68.4C85.0551 68.4 85.0551 68.3722 85.1385 65.3971L85.222 62.422L86.0005 62.3385L86.7512 62.2551L86.6956 56.2215L86.6122 50.1878L85.8615 50.1044C85.0829 50.021 85.0829 49.9932 85.0829 47.7966C85.0829 45.6556 85.0551 45.6 84.4156 45.6C83.7761 45.6 83.7205 45.4888 83.6371 44.1263C83.5537 42.7917 83.4981 42.6805 82.8029 42.5971C82.1912 42.5137 82.0244 42.3468 82.0244 41.8463C82.0244 41.3737 81.8576 41.1512 81.4127 41.0956C80.8566 41.0122 80.7732 40.8176 80.6898 39.5663C80.6064 38.2317 80.5507 38.1205 79.8556 38.0371C79.2717 37.9815 79.0771 37.7868 79.0215 37.1751C78.9381 36.5912 78.7712 36.4244 78.2429 36.4244C77.7146 36.4244 77.5756 36.2854 77.5756 35.7571C77.5756 35.2288 77.4088 35.0619 76.8249 34.9785C76.2132 34.9229 76.0185 34.7283 75.9629 34.1444C75.8795 33.4493 75.7683 33.3937 74.4337 33.3102C73.1825 33.2268 72.9878 33.1434 72.9044 32.5873C72.8488 32.1424 72.6264 31.9756 72.1537 31.9756C71.6532 31.9756 71.4864 31.8088 71.4029 31.1971C71.3195 30.5019 71.2083 30.4463 69.8737 30.3629C68.5112 30.2795 68.4 30.2239 68.4 29.5844V28.9171H64.6742H60.9205L60.8371 28.1385L60.7537 27.3878L56.2493 27.3044L51.7449 27.2488L51.6615 27.9995ZM62.2829 38.7878C62.2829 39.4829 62.3107 39.4829 64.4795 39.4829H66.6761L66.8429 40.3171C66.9542 40.9844 67.1488 41.1512 67.7049 41.1512C68.261 41.1512 68.4 41.2902 68.4 41.8463C68.4 42.4024 68.539 42.5415 69.0673 42.5415C69.5956 42.5415 69.7625 42.7083 69.8459 43.2922C69.9015 43.9039 70.0961 44.0985 70.7078 44.1541C71.2917 44.2376 71.4585 44.4044 71.4585 44.9327C71.4585 45.461 71.5976 45.6 72.1259 45.6C72.6542 45.6 72.821 45.7668 72.9044 46.3507C72.96 46.9624 73.1546 47.1571 73.7664 47.2127C74.5171 47.2961 74.5171 47.3239 74.5171 49.5205C74.5171 51.6893 74.5171 51.7171 75.2122 51.7171H75.9073V57V62.2829H75.2122C74.5171 62.2829 74.5171 62.3107 74.5171 64.4795C74.5171 66.6761 74.5171 66.7039 73.7664 66.7873C73.1546 66.8429 72.96 67.0376 72.9044 67.6215C72.821 68.2332 72.6542 68.4 72.1259 68.4C71.5976 68.4 71.4585 68.539 71.4585 69.0673C71.4585 69.5956 71.2917 69.7624 70.7078 69.8459C70.0961 69.9015 69.9015 70.0961 69.8459 70.68C69.7625 71.2917 69.5956 71.4585 69.0673 71.4585C68.539 71.4585 68.4 71.5976 68.4 72.1259C68.4 72.7654 68.2888 72.821 66.9542 72.9044C65.5917 72.9878 65.4805 73.0434 65.3971 73.7385C65.3137 74.4893 65.2303 74.5171 63.7844 74.5171C62.3664 74.5171 62.2829 74.5449 62.2829 75.2122V75.9073H57H51.7171V75.2122C51.7171 74.5449 51.6337 74.5171 50.2156 74.5171C48.7698 74.5171 48.6864 74.4893 48.6029 73.7385C48.5195 73.0434 48.4083 72.9878 47.0737 72.9044C45.7112 72.821 45.6 72.7654 45.6 72.1259C45.6 71.5976 45.461 71.4585 44.9327 71.4585C44.4044 71.4585 44.2376 71.2917 44.1542 70.68C44.0985 70.0961 43.9039 69.9015 43.32 69.8459C42.7083 69.7624 42.5415 69.5956 42.5415 69.0673C42.5415 68.539 42.4025 68.4 41.8742 68.4C41.2346 68.4 41.179 68.2888 41.0956 66.9263C41.0122 65.5917 40.9566 65.4805 40.2615 65.3971C39.5107 65.3137 39.4829 65.2302 39.4829 63.7844C39.4829 62.3663 39.4551 62.2829 38.7878 62.2829H38.0927V57.6951V53.1073H38.7878C39.4829 53.1073 39.4829 53.0795 39.4829 50.9107C39.4829 48.7141 39.4829 48.6863 40.2615 48.6029C40.9566 48.5195 41.0122 48.4083 41.0956 47.0459C41.179 45.7112 41.2346 45.6 41.8742 45.6C42.4025 45.6 42.5415 45.461 42.5415 44.9327C42.5415 44.4044 42.7083 44.2376 43.32 44.1541C43.9039 44.0985 44.0985 43.9039 44.1542 43.2922C44.2376 42.7083 44.4044 42.5415 44.9327 42.5415C45.461 42.5415 45.6 42.4024 45.6 41.8741C45.6 41.2346 45.7112 41.179 47.0737 41.0956C48.4083 41.0122 48.5195 40.9566 48.6029 40.2337C48.6864 39.5107 48.7698 39.4829 50.2156 39.4829C51.6337 39.4829 51.7171 39.4551 51.7171 38.7878V38.0927H57H62.2829V38.7878Z" fill="white"/>
</g>
<defs>
<clipPath id="clip0_28_26">
<rect width="114" height="114" fill="white"/>
</clipPath>
</defs>
</svg>
