<svg width="118" height="118" viewBox="0 0 118 118" fill="none" xmlns="http://www.w3.org/2000/svg">
<path d="M103.763 1.10327L103.771 1.80486L103.851 1.87331L103.931 1.94175H106.061C107.707 1.94175 108.209 1.95031 108.263 1.97883C108.411 2.05298 108.434 2.16136 108.434 2.76313C108.434 3.10251 108.446 3.33638 108.466 3.37345C108.537 3.50464 108.605 3.51035 110 3.51035C110.799 3.51035 111.34 3.52176 111.386 3.53887C111.517 3.5902 111.543 3.70713 111.543 4.29179C111.543 4.5827 111.554 4.85078 111.571 4.89071C111.629 5.04187 111.697 5.05898 112.256 5.05327C112.553 5.05042 112.815 5.06183 112.883 5.07894C113.083 5.13313 113.097 5.17876 113.1 5.83757C113.103 6.46786 113.117 6.53346 113.271 6.5905C113.311 6.60761 113.585 6.61902 113.882 6.61902C114.238 6.61902 114.446 6.63042 114.495 6.65324C114.652 6.72454 114.652 6.7331 114.652 8.15909C114.652 9.51664 114.66 9.61646 114.769 9.68776C114.791 9.70202 115.088 9.71913 115.427 9.72769L116.049 9.74195L116.126 9.8218L116.206 9.89881L116.22 12.0806L116.235 14.2595L116.3 14.3251C116.363 14.3907 116.38 14.3907 117.062 14.3992L117.76 14.4078V58.8104V103.213L117.062 103.222C116.38 103.23 116.363 103.23 116.3 103.296L116.235 103.361L116.22 105.54L116.206 107.722L116.126 107.799L116.049 107.879L115.427 107.893C115.088 107.902 114.791 107.919 114.769 107.933C114.66 108.004 114.652 108.104 114.652 109.462C114.652 110.888 114.652 110.896 114.495 110.968C114.446 110.99 114.238 111.002 113.882 111.002C113.585 111.002 113.311 111.013 113.271 111.03C113.117 111.087 113.103 111.153 113.1 111.783C113.097 112.442 113.083 112.488 112.883 112.542C112.815 112.559 112.553 112.57 112.256 112.568C111.697 112.562 111.629 112.579 111.571 112.73C111.554 112.77 111.543 113.038 111.543 113.329C111.543 113.914 111.517 114.031 111.386 114.082C111.34 114.099 110.799 114.111 110 114.111C108.605 114.111 108.537 114.116 108.466 114.247C108.446 114.285 108.434 114.518 108.434 114.858C108.434 115.46 108.411 115.568 108.263 115.642C108.209 115.671 107.707 115.679 106.061 115.679H103.931L103.851 115.748L103.771 115.816L103.763 116.518L103.754 117.219H59.3344H14.9147L14.9204 116.552C14.929 115.813 14.9147 115.75 14.7493 115.719C14.7036 115.71 13.7283 115.699 12.5761 115.699C10.8592 115.693 10.4684 115.688 10.4057 115.653C10.2717 115.585 10.2545 115.488 10.2631 114.929C10.2688 114.601 10.2602 114.387 10.2403 114.322C10.1775 114.136 10.1918 114.139 8.72302 114.139C7.52233 114.139 7.39399 114.133 7.30273 114.088C7.15443 114.016 7.13446 113.925 7.13446 113.292C7.13161 112.756 7.13161 112.744 7.06316 112.665L6.99472 112.585L6.36443 112.57C5.53735 112.55 5.6115 112.625 5.59154 111.798L5.57728 111.167L5.49742 111.099C5.41757 111.03 5.40616 111.03 4.86998 111.028C4.23684 111.028 4.14558 111.008 4.07428 110.859C4.02865 110.768 4.02294 110.64 4.02294 109.439C4.02294 107.97 4.02579 107.984 3.84042 107.922C3.77482 107.902 3.56092 107.893 3.23294 107.899C2.67395 107.907 2.57698 107.89 2.50854 107.756C2.47431 107.694 2.46861 107.306 2.46576 105.589C2.4629 104.439 2.45435 103.461 2.44294 103.416C2.41157 103.247 2.35168 103.236 1.61301 103.242L0.942793 103.247V67.3978V31.5454H1.59875C2.31745 31.5454 2.40016 31.5283 2.45435 31.3857C2.47146 31.3401 2.48287 30.205 2.48287 28.4482C2.48287 25.2625 2.47431 25.4222 2.66825 25.3395C2.75095 25.3053 2.885 25.2967 3.30709 25.3024C3.66644 25.3053 3.86038 25.2967 3.90316 25.2739C4.02294 25.2083 4.0372 25.1427 4.05146 24.5067L4.06572 23.8964L4.14558 23.8279C4.22543 23.7595 4.23399 23.7595 4.78157 23.7595C5.38049 23.7595 5.49742 23.7367 5.56302 23.614C5.58869 23.5712 5.60009 23.3631 5.60295 22.9752C5.6058 22.3506 5.62291 22.2793 5.77977 22.2194C5.8197 22.2023 6.10775 22.1909 6.41861 22.1909C6.9776 22.1909 6.98616 22.1909 7.06602 22.1224L7.14587 22.054L7.16013 21.4266C7.17154 20.8619 7.1801 20.7934 7.22858 20.7392C7.31699 20.6423 7.45674 20.6223 7.94443 20.6394C8.72302 20.6679 8.72873 20.6622 8.72873 19.818C8.72873 19.2647 8.72873 19.2562 8.79717 19.1763L8.86562 19.0965L9.49876 19.0822L10.1319 19.068L10.2004 18.9881C10.2688 18.9082 10.2688 18.8997 10.2688 18.3521C10.2688 17.4965 10.2517 17.5136 11.1073 17.5136C11.6549 17.5136 11.6634 17.5136 11.7433 17.4452L11.8231 17.3767L11.8374 16.7436L11.8517 16.1104L11.9315 16.042C12.0199 15.965 11.9943 15.9678 12.6645 15.9735C13.386 15.9764 13.4145 15.9507 13.386 15.2891C13.3661 14.8042 13.3889 14.5989 13.4773 14.4962L13.5429 14.4192L14.1732 14.405C15.0003 14.385 14.9261 14.4591 14.9461 13.6321L14.9603 13.0018L15.0373 12.9362C15.1429 12.8449 15.3026 12.8249 15.796 12.8421C16.027 12.8506 16.2551 12.8449 16.3065 12.8307C16.4833 12.7822 16.4975 12.7251 16.5147 12.0464C16.5346 11.2449 16.4605 11.3162 17.2875 11.2963L17.9178 11.282L17.9863 11.2022C18.0262 11.1537 18.0547 11.0852 18.0547 11.031C18.0576 10.9797 18.0576 10.7344 18.0576 10.4835C18.0576 9.72483 18.0547 9.72769 18.8875 9.72769C19.4408 9.72769 19.4494 9.72769 19.5292 9.65924L19.6091 9.59079L19.6233 8.95765L19.6376 8.32451L19.7174 8.25606C19.8087 8.1762 19.7973 8.17906 20.4219 8.18761C21.1834 8.19617 21.2033 8.17906 21.1919 7.41757C21.1805 6.79869 21.1805 6.80725 21.2604 6.71313L21.3288 6.63328L21.962 6.61902L22.5951 6.60476L22.6636 6.5249C22.732 6.44505 22.732 6.43649 22.732 5.88891C22.732 5.03331 22.7206 5.04472 23.5562 5.05327C24.1181 5.05898 24.1808 5.04757 24.2493 4.92779C24.2749 4.88501 24.292 4.67396 24.3006 4.25757L24.3149 3.64724L24.3947 3.5788L24.4746 3.51035H25.8093C26.7134 3.51035 27.1725 3.49894 27.2353 3.47898C27.3922 3.42479 27.4093 3.35064 27.4093 2.74031C27.4093 2.11858 27.4292 2.02731 27.5804 1.97312C27.6488 1.95031 28.2791 1.94175 29.765 1.94175C31.0256 1.94175 31.884 1.93034 31.9268 1.91323C32.0694 1.85905 32.0865 1.77634 32.0865 1.05764V0.401678H67.9218H103.754L103.763 1.10327ZM88.3278 9.79899C88.2821 9.8218 88.2308 9.86743 88.2137 9.89595C88.1937 9.93588 88.1852 14.5818 88.1852 24.5153C88.1852 40.0158 88.1937 39.1916 88.0568 39.3028C88.0169 39.337 87.88 39.3485 87.3895 39.3599C87.0501 39.3684 86.7563 39.3855 86.7335 39.3998C86.6251 39.4711 86.6166 39.5709 86.6166 40.9285C86.6166 42.3545 86.6166 42.363 86.4597 42.4343C86.4112 42.4571 86.203 42.4685 85.8465 42.4685C85.5499 42.4685 85.2761 42.4799 85.2362 42.4971C85.0794 42.5541 85.0651 42.6254 85.0622 43.25C85.0622 43.6721 85.0537 43.8403 85.0252 43.8888C84.9539 44.0143 84.8255 44.0428 84.3093 44.0371C83.6505 44.0314 83.6847 44.0257 83.5906 44.1198L83.5079 44.2025V44.7587C83.5079 45.3662 83.4879 45.4717 83.3625 45.5344C83.2912 45.5715 80.3479 45.5772 59.3516 45.5772C38.3552 45.5772 35.4119 45.5715 35.3406 45.5344C35.2152 45.4717 35.1952 45.3662 35.1952 44.7587V44.2025L35.1125 44.1198C35.0184 44.0257 35.0526 44.0314 34.3938 44.0371C33.8776 44.0428 33.7492 44.0143 33.6779 43.8888C33.6494 43.8403 33.6409 43.6721 33.6409 43.25C33.638 42.6254 33.6237 42.5541 33.4669 42.4971C33.427 42.4799 33.1532 42.4685 32.8566 42.4685C32.5001 42.4685 32.2919 42.4571 32.2434 42.4343C32.0865 42.363 32.0865 42.3545 32.0865 40.9285C32.0865 39.5709 32.078 39.4711 31.9696 39.3998C31.9468 39.3855 31.653 39.3684 31.3136 39.3599C30.8231 39.3485 30.6862 39.337 30.6463 39.3028C30.5122 39.1916 30.5179 39.9132 30.5179 26.0924C30.5179 13.7861 30.5208 13.1016 30.5693 13.0075C30.6434 12.8563 30.7347 12.8364 31.345 12.8449C31.8156 12.8506 31.884 12.8449 31.9525 12.7993C31.9953 12.7708 32.0437 12.7166 32.058 12.6766C32.0751 12.6367 32.0865 12.3743 32.0865 12.092C32.0865 11.5473 32.0609 11.4161 31.9496 11.3562C31.9097 11.3362 31.4562 11.3248 30.5465 11.3248C29.0976 11.3248 29.0691 11.3277 29.0149 11.4731C29.0035 11.5102 28.9921 11.7897 28.9921 12.0948C28.9921 12.8991 29.0121 12.8763 28.2592 12.8677C27.9654 12.8649 27.7059 12.8763 27.6403 12.8934C27.452 12.9419 27.4378 12.9989 27.4378 13.6349C27.4378 14.2566 27.4178 14.3479 27.2667 14.4021C27.2096 14.4221 26.9615 14.4335 26.6335 14.4335C26.0318 14.4335 25.9547 14.4506 25.9006 14.6074C25.8806 14.6616 25.8692 14.9155 25.8692 15.2377C25.8692 15.868 25.8549 15.9251 25.6667 15.9735C25.5982 15.9935 25.3416 16.0021 25.0336 15.9992C24.4888 15.9907 24.4175 16.0049 24.3548 16.119C24.3377 16.1561 24.3234 16.4013 24.3206 16.7664C24.3149 17.3967 24.3034 17.448 24.1665 17.5108C24.1266 17.5307 23.8814 17.5421 23.5619 17.5421C23.2425 17.5421 22.9887 17.5535 22.9345 17.5735C22.7776 17.6277 22.7605 17.7019 22.7605 18.3122C22.7605 18.9339 22.7406 19.0252 22.5894 19.0794C22.5324 19.0993 22.2842 19.1107 21.9563 19.1107C21.3288 19.1107 21.2689 19.1278 21.2204 19.3104C21.2033 19.3731 21.1919 19.6469 21.1948 19.9293C21.1976 20.2772 21.1862 20.4597 21.1634 20.5139C21.1007 20.6451 21.0008 20.6651 20.4618 20.6565C19.9285 20.6451 19.7602 20.6708 19.7032 20.7734C19.6775 20.8162 19.6604 21.0273 19.6518 21.4351C19.6376 22.074 19.6262 22.1253 19.4893 22.188C19.4465 22.208 19.1984 22.2194 18.8647 22.2194C18.243 22.2194 18.1688 22.2365 18.1146 22.3934C18.0947 22.4476 18.0833 22.7014 18.0833 23.0237C18.0833 23.654 18.069 23.711 17.8808 23.7595C17.8152 23.7766 17.5528 23.788 17.2619 23.7851C16.9596 23.7823 16.7257 23.7937 16.6801 23.8108C16.546 23.865 16.5318 23.9277 16.5318 24.5438C16.5289 25.157 16.5118 25.2368 16.3806 25.2967C16.3378 25.3167 16.1097 25.3281 15.776 25.3281C15.4566 25.3281 15.2027 25.3395 15.1486 25.3594C14.9917 25.4136 14.9746 25.4878 14.9746 26.0981C14.9746 26.7198 14.9546 26.8111 14.8035 26.8653C14.7464 26.8853 14.4983 26.8967 14.1703 26.8967C13.5686 26.8967 13.4916 26.9138 13.4374 27.0706C13.4174 27.1248 13.406 27.3787 13.406 27.6981C13.406 28.0318 13.3946 28.2599 13.3746 28.3027C13.3147 28.4339 13.2349 28.451 12.6217 28.451C12.308 28.451 12.0285 28.4624 12 28.4767C11.8859 28.5309 11.8659 28.6364 11.8659 29.184C11.8659 29.472 11.8517 29.7544 11.8345 29.8114C11.7861 29.9911 11.7262 30.0053 11.0816 30.0053C10.457 30.0053 10.3829 30.0224 10.3287 30.1793C10.2831 30.3105 10.2831 102.882 10.3287 103.013C10.3829 103.17 10.457 103.187 11.0731 103.187C11.6862 103.187 11.7376 103.199 11.8146 103.359C11.8602 103.45 11.8659 103.578 11.8659 104.776C11.8659 106.122 11.8716 106.208 11.9771 106.259C12.0028 106.27 12.6474 106.288 13.4117 106.296L14.8035 106.31L14.8805 106.39L14.9603 106.467L14.9746 107.075C14.9831 107.406 15.0003 107.702 15.0145 107.731C15.0773 107.865 15.0658 107.865 17.279 107.865C18.7278 107.865 19.3866 107.856 19.4494 107.833C19.5007 107.816 19.5577 107.765 19.5805 107.719C19.6176 107.648 19.6233 104.987 19.6233 86.0641C19.6233 72.423 19.6347 64.4631 19.6518 64.4175C19.7089 64.2663 19.7716 64.252 20.3706 64.2549C21.1948 64.2606 21.1948 64.2606 21.1862 63.4877C21.1805 62.8717 21.1805 62.8774 21.2604 62.7833L21.3288 62.7034L21.962 62.6891L22.5951 62.6749L22.6636 62.595C22.732 62.5152 22.732 62.5066 22.732 61.9533C22.732 61.4742 22.7406 61.3772 22.7833 61.2917C22.866 61.1234 22.8832 61.1206 24.3434 61.1263C25.7237 61.132 25.7466 61.1291 25.815 61.0036C25.835 60.9665 25.8464 60.727 25.8492 60.3676C25.8549 59.7516 25.872 59.6717 26.0032 59.6118C26.1145 59.5605 27.1925 59.5691 27.2923 59.6233C27.4178 59.686 27.4378 59.7915 27.4378 60.3819C27.4378 60.9352 27.452 61.0236 27.5576 61.0892C27.6346 61.1377 33.4213 61.1405 33.5125 61.092C33.6237 61.0321 33.6352 60.958 33.638 60.3648C33.6409 59.7459 33.658 59.666 33.7949 59.609C33.8462 59.589 34.5221 59.5805 36.028 59.5862L38.1869 59.5947L38.2525 59.6603C38.3153 59.7231 38.3181 59.7459 38.3324 60.3477C38.3466 60.9951 38.3523 61.0264 38.4778 61.0949C38.552 61.132 73.9395 61.132 74.0108 61.092C74.1163 61.035 74.1306 60.958 74.1334 60.3676C74.1391 59.7516 74.1562 59.6717 74.2874 59.6118C74.3987 59.5605 75.4767 59.5691 75.5765 59.6233C75.702 59.686 75.722 59.7915 75.722 60.3819C75.722 60.7013 75.7334 60.9466 75.7534 60.9865C75.8189 61.1291 75.7562 61.1263 78.0007 61.1234C79.1558 61.1234 80.1226 61.1234 80.1483 61.1206C80.1739 61.1206 80.2338 61.0892 80.2766 61.0521L80.3565 60.9837L80.3707 60.3534C80.385 59.7459 80.3878 59.7231 80.4506 59.6603L80.5162 59.5947L82.6751 59.5862C84.181 59.5805 84.8569 59.589 84.9082 59.609C85.0451 59.666 85.0622 59.7459 85.0651 60.3648C85.068 60.958 85.0794 61.0321 85.1906 61.092C85.2818 61.1405 91.0685 61.1377 91.1455 61.0892C91.2511 61.0236 91.2653 60.9352 91.2653 60.3819C91.2653 59.7915 91.2853 59.686 91.4108 59.6233C91.5106 59.5691 92.5886 59.5605 92.6999 59.6118C92.8311 59.6717 92.8482 59.7516 92.8539 60.3676C92.8567 60.727 92.8681 60.9665 92.8881 61.0036C92.9566 61.1291 92.9794 61.132 94.3597 61.1263C95.82 61.1206 95.8371 61.1234 95.9198 61.2917C95.9626 61.3772 95.9711 61.4742 95.9711 61.9533C95.9711 62.5066 95.9711 62.5152 96.0396 62.595L96.108 62.6749L96.7411 62.6891L97.3743 62.7034L97.4427 62.7833C97.5226 62.8774 97.5226 62.8717 97.5169 63.4877C97.5083 64.2606 97.5083 64.2606 98.3326 64.2549C98.9315 64.252 98.9942 64.2663 99.0513 64.4175C99.0684 64.4631 99.0798 72.423 99.0798 86.0641C99.0798 105.224 99.0855 107.648 99.1226 107.722C99.1511 107.779 99.2024 107.816 99.2737 107.836C99.3479 107.859 100.246 107.865 102.251 107.859L105.126 107.85L105.203 107.771L105.283 107.694L105.297 107.072C105.306 106.732 105.323 106.436 105.337 106.413C105.397 106.319 105.545 106.296 106.093 106.296C106.669 106.296 106.752 106.282 106.806 106.162C106.829 106.116 106.837 105.68 106.837 104.776C106.837 103.578 106.843 103.45 106.889 103.359C106.966 103.199 107.017 103.187 107.63 103.187C108.246 103.187 108.32 103.17 108.374 103.013C108.42 102.882 108.42 14.7386 108.374 14.6074C108.32 14.4506 108.246 14.4335 107.63 14.4335C107.017 14.4335 106.966 14.4221 106.889 14.2624C106.843 14.1711 106.837 14.0427 106.837 12.8449C106.837 11.4988 106.831 11.4132 106.726 11.3619C106.7 11.3505 106.056 11.3334 105.291 11.3248L103.9 11.3105L103.823 11.2307L103.743 11.1537L103.729 10.5462C103.72 10.2154 103.703 9.91877 103.689 9.89025C103.623 9.7505 104.048 9.75906 95.9626 9.75621C89.2803 9.75621 88.4019 9.76191 88.3278 9.79899ZM40.0436 9.79899C39.9979 9.8218 39.9466 9.86743 39.9295 9.89595C39.8896 9.97296 39.8896 35.9603 39.9295 36.0658C39.9466 36.1086 39.9979 36.1571 40.0578 36.1799C40.2061 36.2426 78.497 36.2426 78.6453 36.1799C78.7052 36.1571 78.7565 36.1086 78.7736 36.0658C78.8135 35.9603 78.8135 9.97296 78.7736 9.89881C78.7565 9.86743 78.708 9.82465 78.6652 9.80184C78.5968 9.76476 76.2724 9.75906 59.3573 9.75621C42.2596 9.75621 40.1177 9.76191 40.0436 9.79899ZM27.6317 68.9664C27.5576 68.9863 27.5091 69.0206 27.4806 69.0776C27.4435 69.1518 27.4378 71.3449 27.4378 88.397C27.4378 100.575 27.4492 107.659 27.4663 107.705C27.4806 107.745 27.5319 107.796 27.5775 107.822C27.6545 107.859 30.8031 107.865 59.3516 107.865C87.9 107.865 91.0486 107.859 91.1256 107.822C91.1712 107.796 91.2225 107.745 91.2368 107.705C91.2539 107.659 91.2653 100.575 91.2653 88.397C91.2653 71.2822 91.2596 69.1518 91.2225 69.0776C91.194 69.0263 91.1427 68.9835 91.0856 68.9664C90.9516 68.9293 27.7715 68.9264 27.6317 68.9664Z" fill="white"/>
</svg>
