<svg width="96" height="111" viewBox="0 0 96 111" fill="none" xmlns="http://www.w3.org/2000/svg">
<path d="M74.8 0.088913C77.4136 0.088913 80.0272 0.088913 82.72 0.088913C82.8652 0.379313 83.0104 0.669713 83.16 0.968913C84.4668 1.04151 85.7736 1.11411 87.12 1.18891C87.12 1.69711 87.12 2.20531 87.12 2.72891C87.6282 2.72891 88.1364 2.72891 88.66 2.72891C88.66 3.16451 88.66 3.60011 88.66 4.04891C88.8324 4.03984 89.0049 4.03076 89.1825 4.02141C89.76 4.04891 89.76 4.04891 90.2 4.48891C90.2275 5.06641 90.2275 5.06641 90.2 5.58891C90.6356 5.58891 91.0712 5.58891 91.52 5.58891C91.52 6.09711 91.52 6.60531 91.52 7.12891C91.8399 7.12211 91.8399 7.12211 92.1663 7.11516C92.84 7.12891 92.84 7.12891 93.06 7.34891C93.0689 7.71547 93.0694 8.08237 93.06 8.44891C93.3186 8.4353 93.3186 8.4353 93.5825 8.42141C94.16 8.44891 94.16 8.44891 94.6 8.88891C94.643 9.50938 94.643 9.50938 94.6275 10.2364C94.6235 10.4775 94.6196 10.7185 94.6155 10.9669C94.6078 11.2451 94.6078 11.2451 94.6 11.5289C95.0356 11.5289 95.4712 11.5289 95.92 11.5289C95.92 15.5945 95.92 19.6601 95.92 23.8489C95.4844 23.8489 95.0488 23.8489 94.6 23.8489C94.6026 24.0528 94.6051 24.2567 94.6077 24.4668C94.6107 24.862 94.6107 24.862 94.6137 25.2652C94.6163 25.5281 94.6189 25.7909 94.6215 26.0618C94.6 26.7089 94.6 26.7089 94.38 26.9289C93.9401 26.9379 93.4999 26.9383 93.06 26.9289C93.0625 27.1169 93.0651 27.305 93.0677 27.4987C93.0707 27.8632 93.0707 27.8632 93.0737 28.2352C93.0763 28.4776 93.0789 28.7201 93.0815 28.9699C93.06 29.5689 93.06 29.5689 92.84 29.7889C92.4001 29.7979 91.9599 29.7983 91.52 29.7889C91.52 30.2971 91.52 30.8053 91.52 31.3289C91.0844 31.3289 90.6488 31.3289 90.2 31.3289C90.2 31.7645 90.2 32.2001 90.2 32.6489C89.6918 32.6489 89.1836 32.6489 88.66 32.6489C88.66 33.1571 88.66 33.6653 88.66 34.1889C87.7162 34.1889 86.7724 34.1889 85.8 34.1889C85.8 34.6245 85.8 35.0601 85.8 35.5089C85.58 35.7289 85.58 35.7289 85.0299 35.7539C84.7915 35.7527 84.553 35.7516 84.3073 35.7504C83.9212 35.7493 83.9212 35.7493 83.5274 35.7482C83.2564 35.7464 82.9854 35.7446 82.7063 35.7427C82.2985 35.7412 82.2985 35.7412 81.8825 35.7397C81.2083 35.7371 80.5342 35.7334 79.86 35.7289C79.86 36.1645 79.86 36.6001 79.86 37.0489C78.1902 37.0489 76.5204 37.0489 74.8 37.0489C74.8 36.6133 74.8 36.1777 74.8 35.7289C73.348 35.7289 71.896 35.7289 70.4 35.7289C70.4 35.2207 70.4 34.7125 70.4 34.1889C70.0941 34.1927 70.0941 34.1927 69.7821 34.1966C69.5187 34.1986 69.2552 34.2006 68.9837 34.2027C68.7209 34.2052 68.458 34.2078 68.1871 34.2104C67.54 34.1889 67.54 34.1889 67.32 33.9689C67.311 33.529 67.3106 33.0888 67.32 32.6489C66.8844 32.6489 66.4488 32.6489 66 32.6489C66 32.2133 66 31.7777 66 31.3289C64.7658 31.3289 63.5316 31.3289 62.26 31.3289C62.26 31.7645 62.26 32.2001 62.26 32.6489C61.7518 32.6489 61.2436 32.6489 60.72 32.6489C60.72 33.1571 60.72 33.6653 60.72 34.1889C59.7762 34.1889 58.8324 34.1889 57.86 34.1889C57.86 34.6245 57.86 35.0601 57.86 35.5089C57.64 35.7289 57.64 35.7289 57.041 35.7504C56.6773 35.7466 56.6773 35.7466 56.3063 35.7427C56.0632 35.7407 55.8202 35.7387 55.5698 35.7366C55.2877 35.7328 55.2877 35.7328 55 35.7289C55.0068 35.9944 55.0068 35.9944 55.0137 36.2652C55 36.8289 55 36.8289 54.78 37.0489C54.3401 37.0579 53.8999 37.0583 53.46 37.0489C53.4645 37.2622 53.4691 37.4754 53.4738 37.6952C53.46 38.3689 53.46 38.3689 53.24 38.5889C52.7957 38.6048 52.3508 38.6073 51.9062 38.6027C51.6632 38.6007 51.4202 38.5987 51.1698 38.5966C50.8877 38.5928 50.8877 38.5928 50.6 38.5889C50.6068 38.8544 50.6068 38.8544 50.6138 39.1252C50.6 39.6889 50.6 39.6889 50.38 39.9089C49.9357 39.9248 49.4908 39.9273 49.0462 39.9227C48.8032 39.9207 48.5602 39.9187 48.3098 39.9166C48.0277 39.9128 48.0277 39.9128 47.74 39.9089C47.7082 40.1585 47.6765 40.408 47.6437 40.6652C47.52 41.4489 47.52 41.4489 47.3 41.6689C46.8601 41.6779 46.4199 41.6783 45.98 41.6689C45.98 42.1045 45.98 42.5401 45.98 42.9889C45.0362 42.9889 44.0924 42.9889 43.12 42.9889C43.12 43.4245 43.12 43.8601 43.12 44.3089C42.6118 44.3815 42.1036 44.4541 41.58 44.5289C41.5845 44.7422 41.5891 44.9554 41.5938 45.1752C41.58 45.8489 41.58 45.8489 41.36 46.0689C40.9524 46.0848 40.5442 46.0874 40.1362 46.0827C39.9136 46.0807 39.691 46.0787 39.4616 46.0766C39.2034 46.0728 39.2034 46.0728 38.94 46.0689C38.8674 46.5045 38.7948 46.9401 38.72 47.3889C37.7762 47.3889 36.8324 47.3889 35.86 47.3889C35.86 47.8245 35.86 48.2601 35.86 48.7089C35.497 48.7815 35.134 48.8541 34.76 48.9289C34.6874 49.1467 34.6148 49.3645 34.54 49.5889C34.8054 49.5821 34.8054 49.5821 35.0762 49.5752C35.64 49.5889 35.64 49.5889 35.86 49.8089C35.8805 50.1466 35.8858 50.4852 35.885 50.8235C35.885 51.0393 35.8849 51.2551 35.8849 51.4774C35.8838 51.7121 35.8827 51.9467 35.8815 52.1885C35.881 52.547 35.881 52.547 35.8805 52.9127C35.8793 53.6793 35.8765 54.446 35.8737 55.2127C35.8726 55.731 35.8716 56.2494 35.8707 56.7677C35.8683 58.0414 35.8646 59.3152 35.86 60.5889C35.4244 60.5889 34.9888 60.5889 34.54 60.5889C34.717 60.6161 34.8939 60.6434 35.0762 60.6714C35.3553 60.7395 35.3553 60.7395 35.64 60.8089C35.9652 61.4594 35.8733 62.0722 35.86 62.7889C36.8038 62.7889 37.7476 62.7889 38.72 62.7889C38.7926 63.2971 38.8652 63.8053 38.94 64.3289C39.8112 64.3289 40.6824 64.3289 41.58 64.3289C41.58 64.7645 41.58 65.2001 41.58 65.6489C42.0882 65.6489 42.5964 65.6489 43.12 65.6489C43.12 66.1571 43.12 66.6653 43.12 67.1889C43.308 67.1864 43.496 67.1838 43.6898 67.1812C44.0543 67.1782 44.0543 67.1782 44.4263 67.1752C44.6687 67.1726 44.9112 67.1701 45.161 67.1674C45.76 67.1889 45.76 67.1889 45.98 67.4089C45.989 67.8488 45.9894 68.289 45.98 68.7289C46.1479 68.679 46.3158 68.6291 46.4888 68.5777C47.08 68.5089 47.08 68.5089 47.4787 68.7702C47.74 69.1689 47.74 69.1689 47.74 70.0489C48.6112 70.0489 49.4824 70.0489 50.38 70.0489C50.4526 70.5571 50.5252 71.0653 50.6 71.5889C50.788 71.5864 50.976 71.5838 51.1698 71.5812C51.5343 71.5782 51.5343 71.5782 51.9062 71.5752C52.1487 71.5726 52.3912 71.5701 52.641 71.5674C53.24 71.5889 53.24 71.5889 53.46 71.8089C53.469 72.2488 53.4694 72.689 53.46 73.1289C53.6733 73.1244 53.8865 73.1198 54.1063 73.1152C54.78 73.1289 54.78 73.1289 55 73.3489C55.0089 73.7155 55.0094 74.0824 55 74.4489C55.188 74.4464 55.376 74.4438 55.5698 74.4412C55.9343 74.4382 55.9343 74.4382 56.3063 74.4352C56.5487 74.4326 56.7912 74.4301 57.041 74.4274C57.64 74.4489 57.64 74.4489 57.86 74.6689C57.86 75.1045 57.86 75.5401 57.86 75.9889C58.8038 75.9889 59.7476 75.9889 60.72 75.9889C60.72 76.4971 60.72 77.0053 60.72 77.5289C61.2282 77.5289 61.7364 77.5289 62.26 77.5289C62.26 77.9645 62.26 78.4001 62.26 78.8489C63.4942 78.8489 64.7284 78.8489 66 78.8489C66 78.4133 66 77.9777 66 77.5289C66.4356 77.5289 66.8712 77.5289 67.32 77.5289C67.3132 77.209 67.3132 77.209 67.3063 76.8827C67.32 76.2089 67.32 76.2089 67.54 75.9889C68.021 75.9729 68.5025 75.9705 68.9837 75.9752C69.2472 75.9772 69.5107 75.9791 69.7821 75.9812C69.986 75.9837 70.1899 75.9863 70.4 75.9889C70.4 75.4807 70.4 74.9725 70.4 74.4489C71.852 74.4489 73.304 74.4489 74.8 74.4489C74.8 74.0133 74.8 73.5777 74.8 73.1289C76.4698 73.1289 78.1396 73.1289 79.86 73.1289C79.86 73.5645 79.86 74.0001 79.86 74.4489C80.1182 74.4472 80.1182 74.4472 80.3816 74.4454C81.1565 74.4409 81.9314 74.438 82.7063 74.4352C82.9772 74.4333 83.2482 74.4315 83.5274 74.4296C83.7847 74.4289 84.0421 74.4282 84.3073 74.4274C84.665 74.4257 84.665 74.4257 85.0299 74.4239C85.58 74.4489 85.58 74.4489 85.8 74.6689C85.809 75.1088 85.8094 75.549 85.8 75.9889C85.988 75.9864 86.176 75.9838 86.3698 75.9812C86.7343 75.9782 86.7343 75.9782 87.1062 75.9752C87.3487 75.9726 87.5912 75.9701 87.841 75.9674C88.44 75.9889 88.44 75.9889 88.66 76.2089C88.669 76.6488 88.6694 77.089 88.66 77.5289C88.9799 77.5221 88.9799 77.5221 89.3063 77.5152C89.98 77.5289 89.98 77.5289 90.2 77.7489C90.2089 78.1155 90.2094 78.4824 90.2 78.8489C90.4654 78.8421 90.4654 78.8421 90.7363 78.8352C91.3 78.8489 91.3 78.8489 91.52 79.0689C91.529 79.5088 91.5294 79.949 91.52 80.3889C91.8399 80.3821 91.8399 80.3821 92.1663 80.3752C92.84 80.3889 92.84 80.3889 93.06 80.6089C93.0759 81.0532 93.0784 81.4981 93.0737 81.9427C93.0718 82.1857 93.0698 82.4287 93.0677 82.6791C93.0652 82.8672 93.0626 83.0552 93.06 83.2489C93.3799 83.2421 93.3799 83.2421 93.7063 83.2352C94.38 83.2489 94.38 83.2489 94.6 83.4689C94.616 83.9499 94.6184 84.4314 94.6137 84.9127C94.6118 85.1761 94.6098 85.4396 94.6077 85.711C94.6039 86.0169 94.6039 86.0169 94.6 86.3289C95.0356 86.3289 95.4712 86.3289 95.92 86.3289C95.92 90.3945 95.92 94.4601 95.92 98.6489C95.4844 98.6489 95.0488 98.6489 94.6 98.6489C94.6 99.5927 94.6 100.537 94.6 101.509C94.0918 101.582 93.5836 101.654 93.06 101.729C93.06 102.165 93.06 102.6 93.06 103.049C92.5518 103.049 92.0436 103.049 91.52 103.049C91.5268 103.369 91.5268 103.369 91.5338 103.695C91.52 104.369 91.52 104.369 91.3 104.589C90.9334 104.598 90.5665 104.598 90.2 104.589C90.2068 104.909 90.2068 104.909 90.2138 105.235C90.2 105.909 90.2 105.909 89.98 106.129C89.5401 106.138 89.0999 106.138 88.66 106.129C88.66 106.565 88.66 107 88.66 107.449C88.1518 107.449 87.6436 107.449 87.12 107.449C87.1268 107.769 87.1268 107.769 87.1338 108.095C87.12 108.769 87.12 108.769 86.9 108.989C86.4922 109.008 86.0837 109.012 85.6754 109.01C85.428 109.01 85.1805 109.009 84.9256 109.008C84.5349 109.005 84.5349 109.005 84.1363 109.003C83.8749 109.002 83.6136 109.001 83.3443 109C82.6962 108.997 82.0481 108.993 81.4 108.989C81.4 109.352 81.4 109.715 81.4 110.089C79.222 110.089 77.044 110.089 74.8 110.089C74.8 109.726 74.8 109.363 74.8 108.989C74.5418 108.991 74.5418 108.991 74.2784 108.992C73.5035 108.997 72.7286 109 71.9538 109.003C71.6828 109.005 71.4118 109.006 71.1326 109.008C70.8753 109.009 70.6179 109.01 70.3527 109.01C69.995 109.012 69.995 109.012 69.6301 109.014C69.08 108.989 69.08 108.989 68.86 108.769C68.86 108.333 68.86 107.898 68.86 107.449C67.9162 107.449 66.9724 107.449 66 107.449C66 107.013 66 106.578 66 106.129C65.6801 106.136 65.6801 106.136 65.3538 106.143C64.68 106.129 64.68 106.129 64.46 105.909C64.451 105.469 64.4506 105.029 64.46 104.589C64.1401 104.596 64.1401 104.596 63.8138 104.603C63.14 104.589 63.14 104.589 62.92 104.369C62.9041 103.925 62.9016 103.48 62.9062 103.035C62.9082 102.792 62.9102 102.549 62.9123 102.299C62.9148 102.111 62.9174 101.923 62.92 101.729C62.4844 101.729 62.0488 101.729 61.6 101.729C61.3991 100.635 61.3991 99.7424 61.6 98.6489C61.0918 98.6489 60.5836 98.6489 60.06 98.6489C60.06 94.2929 60.06 89.9369 60.06 85.4489C59.6244 85.4489 59.1888 85.4489 58.74 85.4489C58.52 85.2289 58.52 85.2289 58.5062 84.6652C58.5108 84.4882 58.5153 84.3112 58.52 84.1289C58.2546 84.1357 58.2546 84.1357 57.9837 84.1427C57.42 84.1289 57.42 84.1289 57.2 83.9089C57.2 83.4733 57.2 83.0377 57.2 82.5889C56.1836 82.5889 55.1672 82.5889 54.12 82.5889C54.12 82.0807 54.12 81.5725 54.12 81.0489C53.1762 81.0489 52.2324 81.0489 51.26 81.0489C51.26 80.6133 51.26 80.1777 51.26 79.7289C51.0467 79.7334 50.8335 79.738 50.6138 79.7427C49.94 79.7289 49.94 79.7289 49.72 79.5089C49.711 79.069 49.7106 78.6288 49.72 78.1889C49.532 78.1915 49.344 78.194 49.1502 78.1966C48.7857 78.1996 48.7857 78.1996 48.4137 78.2027C48.1713 78.2052 47.9288 78.2078 47.679 78.2104C47.08 78.1889 47.08 78.1889 46.86 77.9689C46.851 77.529 46.8506 77.0888 46.86 76.6489C46.5541 76.6527 46.5541 76.6527 46.2421 76.6566C45.9786 76.6586 45.7152 76.6606 45.4437 76.6627C45.1809 76.6652 44.918 76.6678 44.6471 76.6704C44 76.6489 44 76.6489 43.78 76.4289C43.7711 76.0624 43.7706 75.6955 43.78 75.3289C43.5146 75.3357 43.5146 75.3357 43.2438 75.3427C42.68 75.3289 42.68 75.3289 42.46 75.1089C42.46 74.6733 42.46 74.2377 42.46 73.7889C41.5162 73.7889 40.5724 73.7889 39.6 73.7889C39.6 73.2807 39.6 72.7725 39.6 72.2489C39.0918 72.2489 38.5836 72.2489 38.06 72.2489C38.06 71.7407 38.06 71.2325 38.06 70.7089C37.1162 70.7089 36.1724 70.7089 35.2 70.7089C35.2 70.2733 35.2 69.8377 35.2 69.3889C34.2562 69.3889 33.3124 69.3889 32.34 69.3889C32.34 68.8807 32.34 68.3725 32.34 67.8489C31.5414 67.8489 30.7428 67.8489 29.92 67.8489C29.92 68.3571 29.92 68.8653 29.92 69.3889C29.4844 69.3889 29.0488 69.3889 28.6 69.3889C28.6 69.8245 28.6 70.2601 28.6 70.7089C28.0918 70.7089 27.5836 70.7089 27.06 70.7089C27.06 71.2171 27.06 71.7253 27.06 72.2489C25.608 72.2489 24.156 72.2489 22.66 72.2489C22.66 72.6845 22.66 73.1201 22.66 73.5689C22.44 73.7889 22.44 73.7889 21.5668 73.8139C21.177 73.8139 20.7871 73.8126 20.3973 73.8104C20.1925 73.8101 19.9877 73.8098 19.7767 73.8094C19.1199 73.8082 18.4631 73.8055 17.8062 73.8027C17.3621 73.8016 16.9179 73.8006 16.4738 73.7997C15.3825 73.7972 14.2913 73.7934 13.2 73.7889C13.2 73.2807 13.2 72.7725 13.2 72.2489C12.8941 72.2527 12.8941 72.2527 12.5821 72.2566C12.3187 72.2586 12.0552 72.2606 11.7837 72.2627C11.5209 72.2652 11.258 72.2678 10.9871 72.2704C10.34 72.2489 10.34 72.2489 10.12 72.0289C10.12 71.5933 10.12 71.1577 10.12 70.7089C9.1762 70.7089 8.2324 70.7089 7.26 70.7089C7.26 70.2733 7.26 69.8377 7.26 69.3889C6.94011 69.3957 6.94011 69.3957 6.61375 69.4027C5.94 69.3889 5.94 69.3889 5.72 69.1689C5.71102 68.729 5.71064 68.2888 5.72 67.8489C5.2844 67.8489 4.8488 67.8489 4.4 67.8489C4.3274 67.4133 4.2548 66.9777 4.18 66.5289C3.7444 66.4563 3.3088 66.3837 2.86 66.3089C2.86 65.8733 2.86 65.4377 2.86 64.9889C2.4244 64.9889 1.9888 64.9889 1.54 64.9889C1.26228 64.4335 1.29832 64.0403 1.30625 63.4214C1.30923 63.1211 1.30923 63.1211 1.31227 62.8147C1.31482 62.661 1.31737 62.5073 1.32 62.3489C0.8844 62.2037 0.4488 62.0585 0 61.9089C0 57.4077 0 52.9065 0 48.2689C0.363 48.1963 0.726 48.1237 1.1 48.0489C1.11333 47.8793 1.12666 47.7097 1.14039 47.535C1.15882 47.3144 1.17726 47.0937 1.19625 46.8664C1.22305 46.5372 1.22305 46.5372 1.25039 46.2013C1.32 45.6289 1.32 45.6289 1.54 45.1889C1.9756 45.1889 2.4112 45.1889 2.86 45.1889C2.86 44.7533 2.86 44.3177 2.86 43.8689C3.3682 43.8689 3.8764 43.8689 4.4 43.8689C4.4 43.3607 4.4 42.8525 4.4 42.3289C4.8356 42.3289 5.2712 42.3289 5.72 42.3289C5.71546 42.1156 5.71093 41.9024 5.70625 41.6827C5.72 41.0089 5.72 41.0089 5.94 40.7889C6.37991 40.7799 6.8201 40.7796 7.26 40.7889C7.26 40.3533 7.26 39.9177 7.26 39.4689C8.2038 39.4689 9.1476 39.4689 10.12 39.4689C10.12 39.0333 10.12 38.5977 10.12 38.1489C10.56 37.7089 10.56 37.7089 11.1805 37.6659C11.4204 37.671 11.6603 37.6762 11.9075 37.6814C12.1486 37.6854 12.3896 37.6894 12.638 37.6934C12.8234 37.6985 13.0089 37.7037 13.2 37.7089C13.2 37.2733 13.2 36.8377 13.2 36.3889C14.5119 36.3835 15.8238 36.3795 17.1357 36.3768C17.5823 36.3757 18.029 36.3742 18.4756 36.3723C19.1162 36.3697 19.7567 36.3684 20.3973 36.3674C20.6987 36.3657 20.6987 36.3657 21.0063 36.364C21.4843 36.3639 21.9622 36.3752 22.44 36.3889C22.66 36.6089 22.66 36.6089 22.6737 37.1727C22.6692 37.3496 22.6647 37.5266 22.66 37.7089C22.9408 37.7064 23.2215 37.7038 23.5108 37.7012C23.878 37.6991 24.2453 37.6971 24.6125 37.6952C24.7977 37.6933 24.9829 37.6915 25.1737 37.6896C25.3509 37.6889 25.5282 37.6882 25.7108 37.6874C25.8744 37.6863 26.038 37.6851 26.2065 37.6839C26.62 37.7089 26.62 37.7089 27.06 37.9289C27.06 38.4371 27.06 38.9453 27.06 39.4689C27.3799 39.4621 27.3799 39.4621 27.7062 39.4552C28.38 39.4689 28.38 39.4689 28.6 39.6889C28.6089 40.0555 28.6094 40.4224 28.6 40.7889C29.0356 40.7889 29.4712 40.7889 29.92 40.7889C29.92 41.2971 29.92 41.8053 29.92 42.3289C30.7186 42.3289 31.5172 42.3289 32.34 42.3289C32.34 41.8207 32.34 41.3125 32.34 40.7889C33.2838 40.7889 34.2276 40.7889 35.2 40.7889C35.2 40.3533 35.2 39.9177 35.2 39.4689C36.1438 39.4689 37.0876 39.4689 38.06 39.4689C38.0532 39.0946 38.0532 39.0946 38.0462 38.7127C38.06 37.9289 38.06 37.9289 38.28 37.7089C38.6466 37.7 39.0135 37.6995 39.38 37.7089C39.4526 37.2733 39.5252 36.8377 39.6 36.3889C40.5438 36.3889 41.4876 36.3889 42.46 36.3889C42.46 35.9533 42.46 35.5177 42.46 35.0689C42.68 34.8489 42.68 34.8489 43.2438 34.8352C43.4207 34.8397 43.5977 34.8442 43.78 34.8489C43.8526 34.3407 43.9252 33.8325 44 33.3089C44.9438 33.3089 45.8876 33.3089 46.86 33.3089C46.86 32.9459 46.86 32.5829 46.86 32.2089C47.08 31.9889 47.08 31.9889 47.679 31.9674C48.0427 31.9713 48.0427 31.9713 48.4137 31.9752C48.6568 31.9771 48.8998 31.9791 49.1502 31.9812C49.4323 31.985 49.4323 31.985 49.72 31.9889C49.7926 31.4807 49.8652 30.9725 49.94 30.4489C50.3756 30.4489 50.8112 30.4489 51.26 30.4489C51.26 30.0133 51.26 29.5777 51.26 29.1289C51.4137 29.1156 51.5674 29.1023 51.7258 29.0885C51.926 29.0701 52.1262 29.0517 52.3325 29.0327C52.6311 29.0059 52.6311 29.0059 52.9358 28.9785C53.4624 28.9375 53.4624 28.9375 53.9 28.6889C53.9726 28.3259 54.0452 27.9629 54.12 27.5889C55.1364 27.5889 56.1528 27.5889 57.2 27.5889C57.2 27.1533 57.2 26.7177 57.2 26.2689C57.6356 26.1963 58.0712 26.1237 58.52 26.0489C58.52 25.6133 58.52 25.1777 58.52 24.7289C59.0282 24.7289 59.5364 24.7289 60.06 24.7289C60.06 20.3729 60.06 16.0169 60.06 11.5289C60.5682 11.5289 61.0764 11.5289 61.6 11.5289C61.5274 11.3837 61.4548 11.2385 61.38 11.0889C61.343 10.636 61.343 10.636 61.3387 10.1127C61.3356 9.94052 61.3325 9.76838 61.3293 9.59102C61.38 9.10891 61.38 9.10891 61.82 8.44891C62.183 8.44891 62.546 8.44891 62.92 8.44891C62.92 7.50511 62.92 6.56131 62.92 5.58891C63.4282 5.58891 63.9364 5.58891 64.46 5.58891C64.4532 5.26902 64.4532 5.26902 64.4463 4.94266C64.46 4.26891 64.46 4.26891 64.68 4.04891C65.1199 4.03994 65.5601 4.03955 66 4.04891C66 3.61331 66 3.17771 66 2.72891C66.9438 2.72891 67.8876 2.72891 68.86 2.72891C68.86 2.22071 68.86 1.71251 68.86 1.18891C70.8202 1.18891 72.7804 1.18891 74.8 1.18891C74.8 0.825913 74.8 0.462913 74.8 0.088913ZM77 6.24891C76.9274 6.68451 76.8548 7.12011 76.78 7.56891C75.4006 7.64151 74.0212 7.71411 72.6 7.78891C72.5274 8.22451 72.4548 8.66011 72.38 9.10891C71.9444 9.18151 71.5088 9.25411 71.06 9.32891C71.06 9.76451 71.06 10.2001 71.06 10.6489C70.5518 10.6489 70.0436 10.6489 69.52 10.6489C69.4474 11.0845 69.3748 11.5201 69.3 11.9689C68.937 12.0415 68.574 12.1141 68.2 12.1889C68.1274 13.0601 68.0548 13.9313 67.98 14.8289C67.3266 14.9378 67.3266 14.9378 66.66 15.0489C66.66 17.2995 66.66 19.5501 66.66 21.8689C67.0956 21.9415 67.5312 22.0141 67.98 22.0889C68.0526 22.9601 68.1252 23.8313 68.2 24.7289C68.6356 24.7289 69.0712 24.7289 69.52 24.7289C69.52 25.2371 69.52 25.7453 69.52 26.2689C70.0282 26.2689 70.5364 26.2689 71.06 26.2689C71.06 26.7045 71.06 27.1401 71.06 27.5889C72.0038 27.5889 72.9476 27.5889 73.92 27.5889C73.92 28.0971 73.92 28.6053 73.92 29.1289C76.6062 29.1289 79.2924 29.1289 82.06 29.1289C82.06 28.6207 82.06 28.1125 82.06 27.5889C83.0038 27.5889 83.9476 27.5889 84.92 27.5889C84.92 27.1533 84.92 26.7177 84.92 26.2689C85.4282 26.2689 85.9364 26.2689 86.46 26.2689C86.46 25.2525 86.46 24.2361 86.46 23.1889C86.9682 23.1889 87.4764 23.1889 88 23.1889C88 22.2451 88 21.3013 88 20.3289C88.4356 20.3289 88.8712 20.3289 89.32 20.3289C89.32 19.0947 89.32 17.8605 89.32 16.5889C88.957 16.5163 88.594 16.4437 88.22 16.3689C88.1474 14.9895 88.0748 13.6101 88 12.1889C87.5644 12.1163 87.1288 12.0437 86.68 11.9689C86.5711 11.3155 86.5711 11.3155 86.46 10.6489C86.0244 10.5763 85.5888 10.5037 85.14 10.4289C85.0674 10.0659 84.9948 9.70291 84.92 9.32891C84.557 9.25631 84.194 9.18371 83.82 9.10891C83.7111 8.45551 83.7111 8.45551 83.6 7.78891C82.148 7.78891 80.696 7.78891 79.2 7.78891C79.2 7.28071 79.2 6.77251 79.2 6.24891C78.474 6.24891 77.748 6.24891 77 6.24891ZM13.86 44.3089C13.86 44.8171 13.86 45.3253 13.86 45.8489C12.4443 45.9578 12.4443 45.9578 11 46.0689C10.9274 46.4319 10.8548 46.7949 10.78 47.1689C10.3444 47.2415 9.9088 47.3141 9.46 47.3889C9.3874 47.7519 9.3148 48.1149 9.24 48.4889C8.8044 48.5615 8.3688 48.6341 7.92 48.7089C7.92 50.1609 7.92 51.6129 7.92 53.1089C7.4844 53.1089 7.0488 53.1089 6.6 53.1089C6.6 54.3431 6.6 55.5773 6.6 56.8489C6.963 56.9215 7.326 56.9941 7.7 57.0689C7.7726 58.4483 7.8452 59.8277 7.92 61.2489C8.3556 61.3215 8.7912 61.3941 9.24 61.4689C9.3126 61.9045 9.3852 62.3401 9.46 62.7889C9.8956 62.8615 10.3312 62.9341 10.78 63.0089C10.8526 63.4445 10.9252 63.8801 11 64.3289C11.9438 64.3289 12.8876 64.3289 13.86 64.3289C13.86 64.7645 13.86 65.2001 13.86 65.6489C16.9818 65.6489 20.1036 65.6489 23.32 65.6489C23.3926 65.2859 23.4652 64.9229 23.54 64.5489C23.9756 64.4763 24.4112 64.4037 24.86 64.3289C24.9326 63.8933 25.0052 63.4577 25.08 63.0089C25.443 62.9363 25.806 62.8637 26.18 62.7889C26.2526 62.3533 26.3252 61.9177 26.4 61.4689C26.8356 61.3963 27.2712 61.3237 27.72 61.2489C27.7926 60.3051 27.8652 59.3613 27.94 58.3889C28.3756 58.3889 28.8112 58.3889 29.26 58.3889C29.26 56.2109 29.26 54.0329 29.26 51.7889C28.8244 51.7889 28.3888 51.7889 27.94 51.7889C27.8674 50.7725 27.7948 49.7561 27.72 48.7089C27.2844 48.6363 26.8488 48.5637 26.4 48.4889C26.3274 48.1259 26.2548 47.7629 26.18 47.3889C25.817 47.3163 25.454 47.2437 25.08 47.1689C24.9711 46.5155 24.9711 46.5155 24.86 45.8489C24.497 45.8489 24.134 45.8489 23.76 45.8489C23.5422 45.1955 23.5422 45.1955 23.32 44.5289C20.1982 44.4563 17.0764 44.3837 13.86 44.3089ZM73.92 81.0489C73.92 81.5571 73.92 82.0653 73.92 82.5889C72.9762 82.5889 72.0324 82.5889 71.06 82.5889C70.9874 83.0245 70.9148 83.4601 70.84 83.9089C70.4044 83.9815 69.9688 84.0541 69.52 84.1289C69.52 84.5645 69.52 85.0001 69.52 85.4489C69.0844 85.4489 68.6488 85.4489 68.2 85.4489C68.1274 86.3201 68.0548 87.1913 67.98 88.0889C67.5444 88.2341 67.1088 88.3793 66.66 88.5289C66.66 90.7069 66.66 92.8849 66.66 95.1289C67.0956 95.2015 67.5312 95.2741 67.98 95.3489C68.0526 96.2201 68.1252 97.0913 68.2 97.9889C68.6356 97.9889 69.0712 97.9889 69.52 97.9889C69.52 98.4971 69.52 99.0053 69.52 99.5289C70.0282 99.5289 70.5364 99.5289 71.06 99.5289C71.06 100.037 71.06 100.545 71.06 101.069C71.5682 101.069 72.0764 101.069 72.6 101.069C72.6 101.505 72.6 101.94 72.6 102.389C73.9794 102.462 75.3588 102.534 76.78 102.609C76.8526 103.045 76.9252 103.48 77 103.929C77.726 103.929 78.452 103.929 79.2 103.929C79.2 103.421 79.2 102.913 79.2 102.389C80.652 102.389 82.104 102.389 83.6 102.389C83.6 101.953 83.6 101.518 83.6 101.069C84.0356 101.069 84.4712 101.069 84.92 101.069C84.9926 100.633 85.0652 100.198 85.14 99.7489C85.5756 99.6763 86.0112 99.6037 86.46 99.5289C86.46 99.0207 86.46 98.5125 86.46 97.9889C86.9682 97.9889 87.4764 97.9889 88 97.9889C88 96.5369 88 95.0849 88 93.5889C88.4356 93.5889 88.8712 93.5889 89.32 93.5889C89.32 92.3547 89.32 91.1205 89.32 89.8489C88.8844 89.8489 88.4488 89.8489 88 89.8489C88 88.9051 88 87.9613 88 86.9889C87.4918 86.9889 86.9836 86.9889 86.46 86.9889C86.46 86.0451 86.46 85.1013 86.46 84.1289C85.9518 84.0563 85.4436 83.9837 84.92 83.9089C84.92 83.4733 84.92 83.0377 84.92 82.5889C83.9762 82.5889 83.0324 82.5889 82.06 82.5889C82.06 82.0807 82.06 81.5725 82.06 81.0489C79.3738 81.0489 76.6876 81.0489 73.92 81.0489Z" fill="white"/>
</svg>
