<?xml version="1.0" encoding="UTF-8"?>
<svg version="1.1" xmlns="http://www.w3.org/2000/svg" width="500" height="500">
<path d="M0 0 C11.88 0 23.76 0 36 0 C36.66 1.32 37.32 2.64 38 4 C43.94 4.33 49.88 4.66 56 5 C56 7.31 56 9.62 56 12 C58.31 12 60.62 12 63 12 C63 13.98 63 15.96 63 18 C63.78375 17.95875 64.5675 17.9175 65.375 17.875 C68 18 68 18 70 20 C70.125 22.625 70.125 22.625 70 25 C71.98 25 73.96 25 76 25 C76 27.31 76 29.62 76 32 C77.4540625 31.9690625 77.4540625 31.9690625 78.9375 31.9375 C82 32 82 32 83 33 C83.04063832 34.66617115 83.042721 36.33388095 83 38 C84.175625 37.938125 84.175625 37.938125 85.375 37.875 C88 38 88 38 90 40 C90.1953125 42.8203125 90.1953125 42.8203125 90.125 46.125 C90.10695313 47.22070312 90.08890625 48.31640625 90.0703125 49.4453125 C90.03550781 50.70988281 90.03550781 50.70988281 90 52 C91.98 52 93.96 52 96 52 C96 70.48 96 88.96 96 108 C94.02 108 92.04 108 90 108 C90.01160156 108.92683594 90.02320313 109.85367188 90.03515625 110.80859375 C90.04869141 112.60490234 90.04869141 112.60490234 90.0625 114.4375 C90.07410156 115.63246094 90.08570313 116.82742187 90.09765625 118.05859375 C90 121 90 121 89 122 C87.00041636 122.04080783 84.99954746 122.04254356 83 122 C83.01160156 122.85464844 83.02320313 123.70929688 83.03515625 124.58984375 C83.04869141 126.24693359 83.04869141 126.24693359 83.0625 127.9375 C83.07410156 129.03964844 83.08570313 130.14179688 83.09765625 131.27734375 C83 134 83 134 82 135 C80.00041636 135.04080783 77.99954746 135.04254356 76 135 C76 137.31 76 139.62 76 142 C74.02 142 72.04 142 70 142 C70 143.98 70 145.96 70 148 C67.69 148 65.38 148 63 148 C63 150.31 63 152.62 63 155 C58.71 155 54.42 155 50 155 C50 156.98 50 158.96 50 161 C49 162 49 162 46.49975586 162.11352539 C45.41573486 162.10828857 44.33171387 162.10305176 43.21484375 162.09765625 C41.46010742 162.09282227 41.46010742 162.09282227 39.66992188 162.08789062 C38.43822266 162.07951172 37.20652344 162.07113281 35.9375 162.0625 C34.08415039 162.05573242 34.08415039 162.05573242 32.19335938 162.04882812 C29.12885883 162.03699608 26.06445279 162.02051173 23 162 C23 163.98 23 165.96 23 168 C15.41 168 7.82 168 0 168 C0 166.02 0 164.04 0 162 C-6.6 162 -13.2 162 -20 162 C-20 159.69 -20 157.38 -20 155 C-21.39025391 155.01740234 -21.39025391 155.01740234 -22.80859375 155.03515625 C-24.00613281 155.04417969 -25.20367187 155.05320313 -26.4375 155.0625 C-27.63246094 155.07410156 -28.82742188 155.08570313 -30.05859375 155.09765625 C-33 155 -33 155 -34 154 C-34.04080783 152.00041636 -34.04254356 149.99954746 -34 148 C-35.98 148 -37.96 148 -40 148 C-40 146.02 -40 144.04 -40 142 C-45.61 142 -51.22 142 -57 142 C-57 143.98 -57 145.96 -57 148 C-59.31 148 -61.62 148 -64 148 C-64 150.31 -64 152.62 -64 155 C-68.29 155 -72.58 155 -77 155 C-77 156.98 -77 158.96 -77 161 C-78 162 -78 162 -80.72265625 162.09765625 C-82.37587891 162.08025391 -82.37587891 162.08025391 -84.0625 162.0625 C-85.16722656 162.05347656 -86.27195312 162.04445312 -87.41015625 162.03515625 C-88.69212891 162.01775391 -88.69212891 162.01775391 -90 162 C-89.9690625 163.2065625 -89.9690625 163.2065625 -89.9375 164.4375 C-90 167 -90 167 -91 168 C-92.99958364 168.04080783 -95.00045254 168.04254356 -97 168 C-96.979375 168.969375 -96.95875 169.93875 -96.9375 170.9375 C-97 174 -97 174 -98 175 C-100.01964199 175.07244053 -102.04167124 175.08377188 -104.0625 175.0625 C-105.16722656 175.05347656 -106.27195312 175.04445312 -107.41015625 175.03515625 C-108.69212891 175.01775391 -108.69212891 175.01775391 -110 175 C-109.9690625 176.2065625 -109.9690625 176.2065625 -109.9375 177.4375 C-110 180 -110 180 -111 181 C-113.01964199 181.07244053 -115.04167124 181.08377188 -117.0625 181.0625 C-118.16722656 181.05347656 -119.27195313 181.04445312 -120.41015625 181.03515625 C-121.69212891 181.01775391 -121.69212891 181.01775391 -123 181 C-123.144375 182.134375 -123.28875 183.26875 -123.4375 184.4375 C-124 188 -124 188 -125 189 C-126.99958364 189.04080783 -129.00045254 189.04254356 -131 189 C-131 190.98 -131 192.96 -131 195 C-135.29 195 -139.58 195 -144 195 C-144 196.98 -144 198.96 -144 201 C-146.31 201.33 -148.62 201.66 -151 202 C-150.979375 202.969375 -150.95875 203.93875 -150.9375 204.9375 C-151 208 -151 208 -152 209 C-153.85287502 209.07226502 -155.70833878 209.0838122 -157.5625 209.0625 C-158.57441406 209.05347656 -159.58632812 209.04445312 -160.62890625 209.03515625 C-161.80259766 209.01775391 -161.80259766 209.01775391 -163 209 C-163.33 210.98 -163.66 212.96 -164 215 C-168.29 215 -172.58 215 -177 215 C-177 216.98 -177 218.96 -177 221 C-178.65 221.33 -180.3 221.66 -182 222 C-182.33 222.99 -182.66 223.98 -183 225 C-181.7934375 224.9690625 -181.7934375 224.9690625 -180.5625 224.9375 C-178 225 -178 225 -177 226 C-176.90680551 227.5348297 -176.882542 229.07392082 -176.88647461 230.61157227 C-176.88655014 231.59251358 -176.88662567 232.5734549 -176.88670349 233.5841217 C-176.89186478 234.6507756 -176.89702606 235.7174295 -176.90234375 236.81640625 C-176.90446617 238.44569313 -176.90446617 238.44569313 -176.90663147 240.1078949 C-176.91224952 243.59279075 -176.92480508 247.07762342 -176.9375 250.5625 C-176.94251267 252.91861887 -176.94707598 255.27473874 -176.95117188 257.63085938 C-176.96222481 263.42059464 -176.97898049 269.21029281 -177 275 C-178.98 275 -180.96 275 -183 275 C-182.195625 275.12375 -181.39125 275.2475 -180.5625 275.375 C-179.2940625 275.684375 -179.2940625 275.684375 -178 276 C-176.5216774 278.95664519 -176.93967217 281.74229737 -177 285 C-172.71 285 -168.42 285 -164 285 C-163.67 287.31 -163.34 289.62 -163 292 C-159.04 292 -155.08 292 -151 292 C-151 293.98 -151 295.96 -151 298 C-148.69 298 -146.38 298 -144 298 C-144 300.31 -144 302.62 -144 305 C-143.14535156 304.98839844 -142.29070312 304.97679687 -141.41015625 304.96484375 C-139.75306641 304.95130859 -139.75306641 304.95130859 -138.0625 304.9375 C-136.96035156 304.92589844 -135.85820312 304.91429687 -134.72265625 304.90234375 C-132 305 -132 305 -131 306 C-130.95919217 307.99958364 -130.95745644 310.00045254 -131 312 C-130.236875 311.773125 -129.47375 311.54625 -128.6875 311.3125 C-126 311 -126 311 -124.1875 312.1875 C-123 314 -123 314 -123 318 C-119.04 318 -115.08 318 -111 318 C-110.67 320.31 -110.34 322.62 -110 325 C-109.14535156 324.98839844 -108.29070312 324.97679687 -107.41015625 324.96484375 C-105.75306641 324.95130859 -105.75306641 324.95130859 -104.0625 324.9375 C-102.96035156 324.92589844 -101.85820312 324.91429687 -100.72265625 324.90234375 C-98 325 -98 325 -97 326 C-96.95919217 327.99958364 -96.95745644 330.00045254 -97 332 C-96.030625 331.979375 -95.06125 331.95875 -94.0625 331.9375 C-91 332 -91 332 -90 333 C-89.95936168 334.66617115 -89.957279 336.33388095 -90 338 C-89.14535156 337.98839844 -88.29070312 337.97679687 -87.41015625 337.96484375 C-85.75306641 337.95130859 -85.75306641 337.95130859 -84.0625 337.9375 C-82.96035156 337.92589844 -81.85820312 337.91429687 -80.72265625 337.90234375 C-78 338 -78 338 -77 339 C-77 340.98 -77 342.96 -77 345 C-72.71 345 -68.42 345 -64 345 C-64 347.31 -64 349.62 -64 352 C-61.69 352 -59.38 352 -57 352 C-57 353.98 -57 355.96 -57 358 C-51.39 358 -45.78 358 -40 358 C-40 356.02 -40 354.04 -40 352 C-38.02 352 -36.04 352 -34 352 C-34.0309375 350.5459375 -34.0309375 350.5459375 -34.0625 349.0625 C-34 346 -34 346 -33 345 C-30.81360547 344.92741054 -28.62499611 344.91626217 -26.4375 344.9375 C-25.23996094 344.94652344 -24.04242188 344.95554687 -22.80859375 344.96484375 C-21.88175781 344.97644531 -20.95492188 344.98804688 -20 345 C-20 342.69 -20 340.38 -20 338 C-13.4 338 -6.8 338 0 338 C0 336.02 0 334.04 0 332 C7.59 332 15.18 332 23 332 C23 333.98 23 335.96 23 338 C24.17357056 337.99214478 24.17357056 337.99214478 25.37084961 337.98413086 C28.89305833 337.96342894 32.4152543 337.95036162 35.9375 337.9375 C37.16919922 337.92912109 38.40089844 337.92074219 39.66992188 337.91210938 C40.83974609 337.90888672 42.00957031 337.90566406 43.21484375 337.90234375 C44.84087524 337.89448853 44.84087524 337.89448853 46.49975586 337.88647461 C49 338 49 338 50 339 C50.04080783 340.99958364 50.04254356 343.00045254 50 345 C50.85464844 344.98839844 51.70929688 344.97679687 52.58984375 344.96484375 C54.24693359 344.95130859 54.24693359 344.95130859 55.9375 344.9375 C57.03964844 344.92589844 58.14179688 344.91429687 59.27734375 344.90234375 C62 345 62 345 63 346 C63.04080783 347.99958364 63.04254356 350.00045254 63 352 C64.4540625 351.9690625 64.4540625 351.9690625 65.9375 351.9375 C69 352 69 352 70 353 C70.04063832 354.66617115 70.042721 356.33388095 70 358 C71.2065625 357.9690625 71.2065625 357.9690625 72.4375 357.9375 C75 358 75 358 76 359 C76.04080783 360.99958364 76.04254356 363.00045254 76 365 C77.4540625 364.9690625 77.4540625 364.9690625 78.9375 364.9375 C82 365 82 365 83 366 C83.07244053 368.01964199 83.08377188 370.04167124 83.0625 372.0625 C83.05347656 373.16722656 83.04445313 374.27195312 83.03515625 375.41015625 C83.02355469 376.26480469 83.01195312 377.11945313 83 378 C84.4540625 377.9690625 84.4540625 377.9690625 85.9375 377.9375 C89 378 89 378 90 379 C90.07258946 381.18639453 90.08373783 383.37500389 90.0625 385.5625 C90.05347656 386.76003906 90.04445313 387.95757812 90.03515625 389.19140625 C90.01775391 390.58166016 90.01775391 390.58166016 90 392 C91.98 392 93.96 392 96 392 C96 410.48 96 428.96 96 448 C94.02 448 92.04 448 90 448 C90 452.29 90 456.58 90 461 C87.69 461.33 85.38 461.66 83 462 C83 463.98 83 465.96 83 468 C80.69 468 78.38 468 76 468 C76.0309375 469.4540625 76.0309375 469.4540625 76.0625 470.9375 C76 474 76 474 75 475 C73.33382885 475.04063832 71.66611905 475.042721 70 475 C70.0309375 476.4540625 70.0309375 476.4540625 70.0625 477.9375 C70 481 70 481 69 482 C67.00041636 482.04080783 64.99954746 482.04254356 63 482 C63 483.98 63 485.96 63 488 C60.69 488 58.38 488 56 488 C56.0309375 489.4540625 56.0309375 489.4540625 56.0625 490.9375 C56 494 56 494 55 495 C53.14630389 495.08737645 51.28932459 495.10698153 49.43359375 495.09765625 C48.30888672 495.09443359 47.18417969 495.09121094 46.02539062 495.08789062 C44.24938477 495.07532227 44.24938477 495.07532227 42.4375 495.0625 C41.24962891 495.05798828 40.06175781 495.05347656 38.83789062 495.04882812 C35.89187774 495.03699675 32.94596319 495.02051287 30 495 C30 496.65 30 498.3 30 500 C20.1 500 10.2 500 0 500 C0 498.35 0 496.7 0 495 C-1.17357056 495.00785522 -1.17357056 495.00785522 -2.37084961 495.01586914 C-5.89305833 495.03657106 -9.4152543 495.04963838 -12.9375 495.0625 C-14.16919922 495.07087891 -15.40089844 495.07925781 -16.66992188 495.08789062 C-17.83974609 495.09111328 -19.00957031 495.09433594 -20.21484375 495.09765625 C-21.84087524 495.10551147 -21.84087524 495.10551147 -23.49975586 495.11352539 C-26 495 -26 495 -27 494 C-27 492.02 -27 490.04 -27 488 C-31.29 488 -35.58 488 -40 488 C-40 486.02 -40 484.04 -40 482 C-41.4540625 482.0309375 -41.4540625 482.0309375 -42.9375 482.0625 C-46 482 -46 482 -47 481 C-47.04080783 479.00041636 -47.04254356 476.99954746 -47 475 C-48.4540625 475.0309375 -48.4540625 475.0309375 -49.9375 475.0625 C-53 475 -53 475 -54 474 C-54.07244053 471.98035801 -54.08377188 469.95832876 -54.0625 467.9375 C-54.05347656 466.83277344 -54.04445313 465.72804688 -54.03515625 464.58984375 C-54.02355469 463.73519531 -54.01195312 462.88054687 -54 462 C-55.98 462 -57.96 462 -60 462 C-60.91297308 457.02936879 -60.91297308 452.97063121 -60 448 C-62.31 448 -64.62 448 -67 448 C-67 428.2 -67 408.4 -67 388 C-68.98 388 -70.96 388 -73 388 C-74 387 -74 387 -74.0625 384.4375 C-74.041875 383.633125 -74.02125 382.82875 -74 382 C-75.2065625 382.0309375 -75.2065625 382.0309375 -76.4375 382.0625 C-79 382 -79 382 -80 381 C-80 379.02 -80 377.04 -80 375 C-84.62 375 -89.24 375 -94 375 C-94 372.69 -94 370.38 -94 368 C-98.29 368 -102.58 368 -107 368 C-107 366.02 -107 364.04 -107 362 C-107.969375 362.020625 -108.93875 362.04125 -109.9375 362.0625 C-113 362 -113 362 -114 361 C-114.04080783 359.00041636 -114.04254356 356.99954746 -114 355 C-114.85464844 355.01160156 -115.70929688 355.02320313 -116.58984375 355.03515625 C-118.24693359 355.04869141 -118.24693359 355.04869141 -119.9375 355.0625 C-121.03964844 355.07410156 -122.14179688 355.08570313 -123.27734375 355.09765625 C-126 355 -126 355 -127 354 C-127.04080783 352.00041636 -127.04254356 349.99954746 -127 348 C-128.39025391 348.01740234 -128.39025391 348.01740234 -129.80859375 348.03515625 C-131.00613281 348.04417969 -132.20367187 348.05320312 -133.4375 348.0625 C-134.63246094 348.07410156 -135.82742187 348.08570313 -137.05859375 348.09765625 C-140 348 -140 348 -141 347 C-141.04063832 345.33382885 -141.042721 343.66611905 -141 342 C-142.2065625 342.0309375 -142.2065625 342.0309375 -143.4375 342.0625 C-146 342 -146 342 -147 341 C-147 339.02 -147 337.04 -147 335 C-151.29 335 -155.58 335 -160 335 C-160 332.69 -160 330.38 -160 328 C-162.31 328 -164.62 328 -167 328 C-167 325.69 -167 323.38 -167 321 C-171.29 321 -175.58 321 -180 321 C-180 319.02 -180 317.04 -180 315 C-184.29 315 -188.58 315 -193 315 C-193 312.69 -193 310.38 -193 308 C-196.63 308 -200.26 308 -204 308 C-204 310.31 -204 312.62 -204 315 C-205.98 315 -207.96 315 -210 315 C-210 316.98 -210 318.96 -210 321 C-212.31 321 -214.62 321 -217 321 C-217 323.31 -217 325.62 -217 328 C-223.6 328 -230.2 328 -237 328 C-237 329.98 -237 331.96 -237 334 C-238 335 -238 335 -241.96899414 335.11352539 C-243.74105607 335.1133662 -245.5131226 335.10766785 -247.28515625 335.09765625 C-248.21597519 335.0962413 -249.14679413 335.09482635 -250.1058197 335.09336853 C-253.09141191 335.08775172 -256.07693029 335.0751964 -259.0625 335.0625 C-261.08137913 335.05748716 -263.10025943 335.05292388 -265.11914062 335.04882812 C-270.07945572 335.03777683 -275.03971532 335.02050095 -280 335 C-280 332.69 -280 330.38 -280 328 C-281.39025391 328.01740234 -281.39025391 328.01740234 -282.80859375 328.03515625 C-284.00613281 328.04417969 -285.20367187 328.05320312 -286.4375 328.0625 C-287.63246094 328.07410156 -288.82742188 328.08570313 -290.05859375 328.09765625 C-293 328 -293 328 -294 327 C-294 325.02 -294 323.04 -294 321 C-298.29 321 -302.58 321 -307 321 C-307 319.02 -307 317.04 -307 315 C-308.4540625 315.0309375 -308.4540625 315.0309375 -309.9375 315.0625 C-313 315 -313 315 -314 314 C-314.04080783 312.00041636 -314.04254356 309.99954746 -314 308 C-315.98 308 -317.96 308 -320 308 C-320.33 306.02 -320.66 304.04 -321 302 C-322.98 301.67 -324.96 301.34 -327 301 C-327 299.02 -327 297.04 -327 295 C-328.98 295 -330.96 295 -333 295 C-334.26237731 292.47524538 -334.09856404 290.68799534 -334.0625 287.875 C-334.04896484 286.50988281 -334.04896484 286.50988281 -334.03515625 285.1171875 C-334.02355469 284.41851562 -334.01195312 283.71984375 -334 283 C-335.98 282.34 -337.96 281.68 -340 281 C-340 260.54 -340 240.08 -340 219 C-338.35 218.67 -336.7 218.34 -335 218 C-334.93941406 217.22914063 -334.87882812 216.45828125 -334.81640625 215.6640625 C-334.73261719 214.66117188 -334.64882813 213.65828125 -334.5625 212.625 C-334.44068359 211.12839844 -334.44068359 211.12839844 -334.31640625 209.6015625 C-334 207 -334 207 -333 205 C-331.02 205 -329.04 205 -327 205 C-327 203.02 -327 201.04 -327 199 C-324.69 199 -322.38 199 -320 199 C-320 196.69 -320 194.38 -320 192 C-318.02 192 -316.04 192 -314 192 C-314.020625 191.030625 -314.04125 190.06125 -314.0625 189.0625 C-314 186 -314 186 -313 185 C-311.00041636 184.95919217 -308.99954746 184.95745644 -307 185 C-307 183.02 -307 181.04 -307 179 C-302.71 179 -298.42 179 -294 179 C-294 177.02 -294 175.04 -294 173 C-292 171 -292 171 -289.1796875 170.8046875 C-288.08914063 170.82789063 -286.99859375 170.85109375 -285.875 170.875 C-284.77929688 170.89304688 -283.68359375 170.91109375 -282.5546875 170.9296875 C-281.71164062 170.95289063 -280.86859375 170.97609375 -280 171 C-280 169.02 -280 167.04 -280 165 C-274.03686834 164.97535426 -268.07376605 164.957166 -262.1105957 164.94506836 C-260.08031702 164.94002722 -258.05004198 164.93319443 -256.01977539 164.92456055 C-253.10822653 164.91248533 -250.1967255 164.90676966 -247.28515625 164.90234375 C-245.91485008 164.89460182 -245.91485008 164.89460182 -244.51686096 164.88670349 C-242.34424573 164.88650832 -240.17172704 164.93788195 -238 165 C-237 166 -237 166 -236.9375 168.5625 C-236.958125 169.366875 -236.97875 170.17125 -237 171 C-235.72382813 170.98839844 -234.44765625 170.97679687 -233.1328125 170.96484375 C-231.46354313 170.95546583 -229.79427217 170.94636563 -228.125 170.9375 C-227.28324219 170.92912109 -226.44148438 170.92074219 -225.57421875 170.91210938 C-224.76855469 170.90888672 -223.96289062 170.90566406 -223.1328125 170.90234375 C-222.38918457 170.89710693 -221.64555664 170.89187012 -220.87939453 170.88647461 C-219 171 -219 171 -217 172 C-217 174.31 -217 176.62 -217 179 C-215.5459375 178.9690625 -215.5459375 178.9690625 -214.0625 178.9375 C-211 179 -211 179 -210 180 C-209.95936168 181.66617115 -209.957279 183.33388095 -210 185 C-208.02 185 -206.04 185 -204 185 C-204 187.31 -204 189.62 -204 192 C-200.37 192 -196.74 192 -193 192 C-193 189.69 -193 187.38 -193 185 C-188.71 185 -184.42 185 -180 185 C-180 183.02 -180 181.04 -180 179 C-175.71 179 -171.42 179 -167 179 C-167.0309375 177.2984375 -167.0309375 177.2984375 -167.0625 175.5625 C-167 172 -167 172 -166 171 C-164.33382885 170.95936168 -162.66611905 170.957279 -161 171 C-160.67 169.02 -160.34 167.04 -160 165 C-155.71 165 -151.42 165 -147 165 C-147 163.02 -147 161.04 -147 159 C-146 158 -146 158 -143.4375 157.9375 C-142.633125 157.958125 -141.82875 157.97875 -141 158 C-140.67 155.69 -140.34 153.38 -140 151 C-135.71 151 -131.42 151 -127 151 C-127 149.35 -127 147.7 -127 146 C-126 145 -126 145 -123.27734375 144.90234375 C-121.62412109 144.91974609 -121.62412109 144.91974609 -119.9375 144.9375 C-118.83277344 144.94652344 -117.72804687 144.95554688 -116.58984375 144.96484375 C-115.30787109 144.98224609 -115.30787109 144.98224609 -114 145 C-113.67 142.69 -113.34 140.38 -113 138 C-111.02 138 -109.04 138 -107 138 C-107 136.02 -107 134.04 -107 132 C-106.30132812 131.93941406 -105.60265625 131.87882813 -104.8828125 131.81640625 C-103.97273437 131.73261719 -103.06265625 131.64882812 -102.125 131.5625 C-100.76761719 131.44068359 -100.76761719 131.44068359 -99.3828125 131.31640625 C-96.98889139 131.13010715 -96.98889139 131.13010715 -95 130 C-94.67 128.35 -94.34 126.7 -94 125 C-89.38 125 -84.76 125 -80 125 C-80 123.02 -80 121.04 -80 119 C-78.02 118.67 -76.04 118.34 -74 118 C-74 116.02 -74 114.04 -74 112 C-71.69 112 -69.38 112 -67 112 C-67 92.2 -67 72.4 -67 52 C-64.69 52 -62.38 52 -60 52 C-60.33 51.34 -60.66 50.68 -61 50 C-61.16796875 47.94140625 -61.16796875 47.94140625 -61.1875 45.5625 C-61.20167969 44.78003906 -61.21585937 43.99757812 -61.23046875 43.19140625 C-61 41 -61 41 -59 38 C-57.35 38 -55.7 38 -54 38 C-54 33.71 -54 29.42 -54 25 C-51.69 25 -49.38 25 -47 25 C-47.0309375 23.5459375 -47.0309375 23.5459375 -47.0625 22.0625 C-47 19 -47 19 -46 18 C-44.00041636 17.95919217 -41.99954746 17.95745644 -40 18 C-40 16.02 -40 14.04 -40 12 C-35.71 12 -31.42 12 -27 12 C-27 9.69 -27 7.38 -27 5 C-18.09 5 -9.18 5 0 5 C0 3.35 0 1.7 0 0 Z M10 28 C9.67 29.98 9.34 31.96 9 34 C2.73 34.33 -3.54 34.66 -10 35 C-10.33 36.98 -10.66 38.96 -11 41 C-12.98 41.33 -14.96 41.66 -17 42 C-17 43.98 -17 45.96 -17 48 C-19.31 48 -21.62 48 -24 48 C-24.33 49.98 -24.66 51.96 -25 54 C-26.65 54.33 -28.3 54.66 -30 55 C-30.33 58.96 -30.66 62.92 -31 67 C-33.97 67.495 -33.97 67.495 -37 68 C-37 78.23 -37 88.46 -37 99 C-35.02 99.33 -33.04 99.66 -31 100 C-30.67 103.96 -30.34 107.92 -30 112 C-28.02 112 -26.04 112 -24 112 C-24 114.31 -24 116.62 -24 119 C-21.69 119 -19.38 119 -17 119 C-17 120.98 -17 122.96 -17 125 C-12.71 125 -8.42 125 -4 125 C-4 127.31 -4 129.62 -4 132 C8.21 132 20.42 132 33 132 C33 129.69 33 127.38 33 125 C37.29 125 41.58 125 46 125 C46 123.02 46 121.04 46 119 C48.31 119 50.62 119 53 119 C53 114.38 53 109.76 53 105 C55.31 105 57.62 105 60 105 C60 100.71 60 96.42 60 92 C61.98 92 63.96 92 66 92 C66 86.39 66 80.78 66 75 C64.35 74.67 62.7 74.34 61 74 C60.67 67.73 60.34 61.46 60 55 C58.02 54.67 56.04 54.34 54 54 C53.505 51.03 53.505 51.03 53 48 C51.02 47.67 49.04 47.34 47 47 C46.67 45.35 46.34 43.7 46 42 C44.35 41.67 42.7 41.34 41 41 C40.505 38.03 40.505 38.03 40 35 C33.4 35 26.8 35 20 35 C20 32.69 20 30.38 20 28 C16.7 28 13.4 28 10 28 Z M-277 201 C-277 203.31 -277 205.62 -277 208 C-283.435 208.495 -283.435 208.495 -290 209 C-290.33 210.65 -290.66 212.3 -291 214 C-292.98 214.33 -294.96 214.66 -297 215 C-297.33 216.65 -297.66 218.3 -298 220 C-299.98 220.33 -301.96 220.66 -304 221 C-304 227.6 -304 234.2 -304 241 C-305.98 241 -307.96 241 -310 241 C-310 246.61 -310 252.22 -310 258 C-308.35 258.33 -306.7 258.66 -305 259 C-304.67 265.27 -304.34 271.54 -304 278 C-302.02 278.33 -300.04 278.66 -298 279 C-297.67 280.98 -297.34 282.96 -297 285 C-295.02 285.33 -293.04 285.66 -291 286 C-290.67 287.98 -290.34 289.96 -290 292 C-285.71 292 -281.42 292 -277 292 C-277 293.98 -277 295.96 -277 298 C-262.81 298 -248.62 298 -234 298 C-233.67 296.35 -233.34 294.7 -233 293 C-231.02 292.67 -229.04 292.34 -227 292 C-226.67 290.02 -226.34 288.04 -226 286 C-224.35 285.67 -222.7 285.34 -221 285 C-220.67 283.02 -220.34 281.04 -220 279 C-218.02 278.67 -216.04 278.34 -214 278 C-213.67 273.71 -213.34 269.42 -213 265 C-211.02 265 -209.04 265 -207 265 C-207 255.1 -207 245.2 -207 235 C-208.98 235 -210.96 235 -213 235 C-213.33 230.38 -213.66 225.76 -214 221 C-215.98 220.67 -217.96 220.34 -220 220 C-220.33 218.35 -220.66 216.7 -221 215 C-222.65 214.67 -224.3 214.34 -226 214 C-226.495 211.03 -226.495 211.03 -227 208 C-228.65 208 -230.3 208 -232 208 C-232.99 205.03 -232.99 205.03 -234 202 C-248.19 201.67 -262.38 201.34 -277 201 Z M-4 368 C-4 370.31 -4 372.62 -4 375 C-8.29 375 -12.58 375 -17 375 C-17.33 376.98 -17.66 378.96 -18 381 C-19.98 381.33 -21.96 381.66 -24 382 C-24 383.98 -24 385.96 -24 388 C-25.98 388 -27.96 388 -30 388 C-30.33 391.96 -30.66 395.92 -31 400 C-32.98 400.66 -34.96 401.32 -37 402 C-37 411.9 -37 421.8 -37 432 C-35.02 432.33 -33.04 432.66 -31 433 C-30.67 436.96 -30.34 440.92 -30 445 C-28.02 445 -26.04 445 -24 445 C-24 447.31 -24 449.62 -24 452 C-21.69 452 -19.38 452 -17 452 C-17 454.31 -17 456.62 -17 459 C-14.69 459 -12.38 459 -10 459 C-10 460.98 -10 462.96 -10 465 C-3.73 465.33 2.54 465.66 9 466 C9.33 467.98 9.66 469.96 10 472 C13.3 472 16.6 472 20 472 C20 469.69 20 467.38 20 465 C26.6 465 33.2 465 40 465 C40 463.02 40 461.04 40 459 C41.98 459 43.96 459 46 459 C46.33 457.02 46.66 455.04 47 453 C48.98 452.67 50.96 452.34 53 452 C53 449.69 53 447.38 53 445 C55.31 445 57.62 445 60 445 C60 438.4 60 431.8 60 425 C61.98 425 63.96 425 66 425 C66 419.39 66 413.78 66 408 C64.02 408 62.04 408 60 408 C60 403.71 60 399.42 60 395 C57.69 395 55.38 395 53 395 C53 390.71 53 386.42 53 382 C50.69 381.67 48.38 381.34 46 381 C46 379.02 46 377.04 46 375 C41.71 375 37.42 375 33 375 C33 372.69 33 370.38 33 368 C20.79 368 8.58 368 -4 368 Z " fill="#050505" transform="translate(372,0)"/>
<path d="M0 0 C5.96313166 -0.02464574 11.92623395 -0.042834 17.8894043 -0.05493164 C19.91968298 -0.05997278 21.94995802 -0.06680557 23.98022461 -0.07543945 C26.89177347 -0.08751467 29.8032745 -0.09323034 32.71484375 -0.09765625 C33.6283812 -0.10281754 34.54191864 -0.10797882 35.48313904 -0.11329651 C37.65575427 -0.11349168 39.82827296 -0.06211805 42 0 C43 1 43 1 43 6 C48.94 6 54.88 6 61 6 C61 6.33 61 6.66 61 7 C57.87517438 7.08687496 54.75065754 7.14034568 51.625 7.1875 C50.73554688 7.21263672 49.84609375 7.23777344 48.9296875 7.26367188 C48.07890625 7.27333984 47.228125 7.28300781 46.3515625 7.29296875 C45.17327881 7.31653442 45.17327881 7.31653442 43.97119141 7.34057617 C43.32069824 7.22818604 42.67020508 7.1157959 42 7 C41.34 6.01 40.68 5.02 40 4 C38.83284911 2.59864986 38.83284911 2.59864986 35.58178711 2.97827148 C34.06348325 3.02061014 32.54533161 3.06863411 31.02734375 3.12109375 C30.22970108 3.14470474 29.43205841 3.16831573 28.61024475 3.19264221 C26.05249027 3.2694626 23.49502473 3.35340715 20.9375 3.4375 C19.20769662 3.49070233 17.47787897 3.54344283 15.74804688 3.59570312 C11.49851356 3.72510242 7.24922618 3.86089312 3 4 C3 4.66 3 5.32 3 6 C0.11584117 7.44207941 -2.41721528 7.09394887 -5.625 7.0625 C-6.81351562 7.05347656 -8.00203125 7.04445312 -9.2265625 7.03515625 C-10.14179687 7.02355469 -11.05703125 7.01195312 -12 7 C-12 6.67 -12 6.34 -12 6 C-8.04 6 -4.08 6 0 6 C0 4.02 0 2.04 0 0 Z " fill="#4F4F4F" transform="translate(92,165)"/>
<path d="M0 0 C0.33 0 0.66 0 1 0 C1 1.98 1 3.96 1 6 C15.19 6 29.38 6 44 6 C44 4.35 44 2.7 44 1 C44.33 1 44.66 1 45 1 C45.1875 4.375 45.1875 4.375 45 8 C41.90944045 10.06037303 41.29073838 10.24799242 37.80395508 10.22705078 C36.96331009 10.22689972 36.1226651 10.22674866 35.25654602 10.22659302 C34.35333115 10.21627045 33.45011627 10.20594788 32.51953125 10.1953125 C31.12754768 10.19106766 31.12754768 10.19106766 29.70744324 10.18673706 C26.74233121 10.17553836 23.77752079 10.15043435 20.8125 10.125 C18.80273874 10.1149698 16.79297274 10.10584402 14.78320312 10.09765625 C9.85535247 10.07560004 4.92772738 10.04107229 0 10 C0 6.66666667 0 3.33333333 0 0 Z " fill="#242424" transform="translate(94,292)"/>
<path d="M0 0 C4.31248609 -0.02886537 8.62494762 -0.04675255 12.9375 -0.0625 C14.16919922 -0.07087891 15.40089844 -0.07925781 16.66992188 -0.08789062 C17.83974609 -0.09111328 19.00957031 -0.09433594 20.21484375 -0.09765625 C21.84087524 -0.10551147 21.84087524 -0.10551147 23.49975586 -0.11352539 C26 0 26 0 27 1 C27 2.98 27 4.96 27 7 C30.96 7 34.92 7 39 7 C39 7.33 39 7.66 39 8 C36.89646505 8.0810206 34.79204048 8.13919907 32.6875 8.1875 C30.92986328 8.23970703 30.92986328 8.23970703 29.13671875 8.29296875 C26 8 26 8 24.20703125 6.55078125 C23.80871094 6.03902344 23.41039062 5.52726562 23 5 C20.69810167 3.84905083 19.28001612 3.84727309 16.71875 3.7890625 C15.87699219 3.76070313 15.03523438 3.73234375 14.16796875 3.703125 C12.38953436 3.65104786 10.6108543 3.60677447 8.83203125 3.5703125 C7.99027344 3.539375 7.14851563 3.5084375 6.28125 3.4765625 C5.50845703 3.45674316 4.73566406 3.43692383 3.93945312 3.41650391 C2 3 2 3 0 0 Z " fill="#4B4B4B" transform="translate(395,338)"/>
<path d="M0 0 C1.32 0 2.64 0 4 0 C4 2.31 4 4.62 4 7 C9.19702754 7.0053295 14.39181133 6.97177275 19.58837891 6.90234375 C21.35555412 6.88418895 23.12287128 6.87661434 24.89013672 6.87988281 C27.43308198 6.88274166 29.97308717 6.8474158 32.515625 6.8046875 C33.30430969 6.81378143 34.09299438 6.82287537 34.90557861 6.83224487 C37.43696579 6.82928469 37.43696579 6.82928469 41 6 C43.32025697 3.07622303 43.32025697 3.07622303 45 0 C48.04745819 -0.45895455 50.2497965 -0.5817278 53.25 -0.375 C53.99507812 -0.34792969 54.74015625 -0.32085937 55.5078125 -0.29296875 C57.33978993 -0.22250808 59.17027151 -0.11488993 61 0 C61 0.33 61 0.66 61 1 C56.05 1 51.1 1 46 1 C46 2.98 46 4.96 46 7 C45 8 45 8 41.03100586 8.11352539 C39.25894393 8.1133662 37.4868774 8.10766785 35.71484375 8.09765625 C34.78402481 8.0962413 33.85320587 8.09482635 32.8941803 8.09336853 C29.90858809 8.08775172 26.92306971 8.0751964 23.9375 8.0625 C21.91862087 8.05748716 19.89974057 8.05292388 17.88085938 8.04882812 C12.92054428 8.03777683 7.96028468 8.02050095 3 8 C3 5.69 3 3.38 3 1 C2.01 0.67 1.02 0.34 0 0 Z " fill="#616161" transform="translate(89,327)"/>
<path d="M0 0 C6.6 0 13.2 0 20 0 C19.67 0.99 19.34 1.98 19 3 C13.06 3 7.12 3 1 3 C0.67 4.32 0.34 5.64 0 7 C0 4.69 0 2.38 0 0 Z " fill="#3C3C3C" transform="translate(352,338)"/>
<path d="M0 0 C1.65322266 0.01740234 1.65322266 0.01740234 3.33984375 0.03515625 C4.44457031 0.04417969 5.54929688 0.05320313 6.6875 0.0625 C7.54214844 0.07410156 8.39679688 0.08570313 9.27734375 0.09765625 C8.94734375 1.08765625 8.61734375 2.07765625 8.27734375 3.09765625 C7.65085937 3.13503906 7.024375 3.17242187 6.37890625 3.2109375 C5.56164062 3.27667969 4.744375 3.34242188 3.90234375 3.41015625 C2.68417969 3.49716797 2.68417969 3.49716797 1.44140625 3.5859375 C-1.10186963 3.92756153 -1.10186963 3.92756153 -2.72265625 7.09765625 C-5.98046875 7.390625 -5.98046875 7.390625 -9.84765625 7.28515625 C-11.76964844 7.24455078 -11.76964844 7.24455078 -13.73046875 7.203125 C-14.71789062 7.16832031 -15.7053125 7.13351563 -16.72265625 7.09765625 C-16.72265625 6.76765625 -16.72265625 6.43765625 -16.72265625 6.09765625 C-12.43265625 6.09765625 -8.14265625 6.09765625 -3.72265625 6.09765625 C-3.72265625 4.44765625 -3.72265625 2.79765625 -3.72265625 1.09765625 C-2.72265625 0.09765625 -2.72265625 0.09765625 0 0 Z " fill="#414141" transform="translate(248.72265625,144.90234375)"/>
<path d="M0 0 C1.65322266 0.01740234 1.65322266 0.01740234 3.33984375 0.03515625 C4.99693359 0.04869141 4.99693359 0.04869141 6.6875 0.0625 C7.54214844 0.07410156 8.39679688 0.08570313 9.27734375 0.09765625 C9.27734375 2.40765625 9.27734375 4.71765625 9.27734375 7.09765625 C8.28734375 7.09765625 7.29734375 7.09765625 6.27734375 7.09765625 C6.27734375 5.77765625 6.27734375 4.45765625 6.27734375 3.09765625 C1.65734375 3.09765625 -2.96265625 3.09765625 -7.72265625 3.09765625 C-6.40265625 2.43765625 -5.08265625 1.77765625 -3.72265625 1.09765625 C-2.72265625 0.09765625 -2.72265625 0.09765625 0 0 Z " fill="#0C0C0C" transform="translate(385.72265625,331.90234375)"/>
<path d="M0 0 C0.78552246 0.01047363 1.57104492 0.02094727 2.38037109 0.03173828 C3.23115234 0.03818359 4.08193359 0.04462891 4.95849609 0.05126953 C6.29267578 0.07640625 6.29267578 0.07640625 7.65380859 0.10205078 C8.99958984 0.11558594 8.99958984 0.11558594 10.37255859 0.12939453 C12.59157445 0.15300108 14.81005937 0.18592768 17.02880859 0.22705078 C17.02880859 2.53705078 17.02880859 4.84705078 17.02880859 7.22705078 C16.03880859 6.89705078 15.04880859 6.56705078 14.02880859 6.22705078 C14.02880859 4.90705078 14.02880859 3.58705078 14.02880859 2.22705078 C8.08880859 2.22705078 2.14880859 2.22705078 -3.97119141 2.22705078 C-1.97119141 0.22705078 -1.97119141 0.22705078 0 0 Z " fill="#0C0C0C" transform="translate(137.97119140625,171.77294921875)"/>
<path d="M0 0 C0.33 0 0.66 0 1 0 C1 1.65 1 3.3 1 5 C1.85464844 4.98839844 2.70929688 4.97679687 3.58984375 4.96484375 C4.69457031 4.95582031 5.79929687 4.94679688 6.9375 4.9375 C8.03964844 4.92589844 9.14179688 4.91429687 10.27734375 4.90234375 C13 5 13 5 14 6 C14 7.98 14 9.96 14 12 C18.29 12 22.58 12 27 12 C27 12.33 27 12.66 27 13 C22.38 13 17.76 13 13 13 C13 11.68 13 10.36 13 9 C8.66579301 6.96834048 4.71403788 6.47939368 0 6 C0 4.02 0 2.04 0 0 Z " fill="#656565" transform="translate(281,333)"/>
<path d="M0 0 C0.99 0 1.98 0 3 0 C3 5.28 3 10.56 3 16 C2.01 16.33 1.02 16.66 0 17 C0 11.39 0 5.78 0 0 Z " fill="#474747" transform="translate(438,408)"/>
<path d="M0 0 C0.33 0 0.66 0 1 0 C1 2.97 1 5.94 1 9 C-3.29 9 -7.58 9 -12 9 C-12.33 8.01 -12.66 7.02 -13 6 C-8.71 6 -4.42 6 0 6 C0 4.02 0 2.04 0 0 Z " fill="#2C2C2C" transform="translate(225,159)"/>
<path d="M0 0 C0.33 0 0.66 0 1 0 C1 1.98 1 3.96 1 6 C1.969375 5.979375 2.93875 5.95875 3.9375 5.9375 C7 6 7 6 8 7 C8.04063832 8.66617115 8.042721 10.33388095 8 12 C9.65 12 11.3 12 13 12 C13 12.33 13 12.66 13 13 C11.35 13 9.7 13 8 13 C8 13.66 8 14.32 8 15 C7.01 14.67 6.02 14.34 5 14 C4.67 11.69 4.34 9.38 4 7 C2.68 7 1.36 7 0 7 C0 4.69 0 2.38 0 0 Z " fill="#373737" transform="translate(434,346)"/>
<path d="M0 0 C5.28 0 10.56 0 16 0 C16 0.33 16 0.66 16 1 C11.05 1 6.1 1 1 1 C1 2.98 1 4.96 1 7 C-0.65 7 -2.3 7 -4 7 C-2.68 4.69 -1.36 2.38 0 0 Z " fill="#474747" transform="translate(134,327)"/>
<path d="M0 0 C0.99 0.33 1.98 0.66 3 1 C3 4.3 3 7.6 3 11 C2.01 11.33 1.02 11.66 0 12 C0 8.04 0 4.08 0 0 Z " fill="#2C2C2C" transform="translate(318,462)"/>
<path d="M0 0 C0.33 0 0.66 0 1 0 C1 4.29 1 8.58 1 13 C0.01 12.67 -0.98 12.34 -2 12 C-2.17835515 7.45194365 -1.99785435 4.1205746 0 0 Z " fill="#282828" transform="translate(461,448)"/>
<path d="M0 0 C2.31 0 4.62 0 7 0 C5.71034824 1.37562854 4.37310707 2.70766393 3 4 C2.34 4 1.68 4 1 4 C1 7.3 1 10.6 1 14 C0.67 14 0.34 14 0 14 C0 9.38 0 4.76 0 0 Z " fill="#272727" transform="translate(425,105)"/>
<path d="M0 0 C1.32 0.66 2.64 1.32 4 2 C3.5 4.375 3.5 4.375 2 7 C-0.66525288 8.08241903 -3.1407915 8.49272107 -6 9 C-6 8.01 -6 7.02 -6 6 C-4.02 6 -2.04 6 0 6 C0 4.02 0 2.04 0 0 Z " fill="#2D2D2D" transform="translate(338,346)"/>
<path d="M0 0 C2.97 0.495 2.97 0.495 6 1 C6.66 4.3 7.32 7.6 8 11 C7.34 11 6.68 11 6 11 C6 8.69 6 6.38 6 4 C4.02 4 2.04 4 0 4 C0 2.68 0 1.36 0 0 Z " fill="#595959" transform="translate(188,275)"/>
<path d="M0 0 C0.33 1.32 0.66 2.64 1 4 C0.195625 4.226875 -0.60875 4.45375 -1.4375 4.6875 C-2.283125 5.120625 -3.12875 5.55375 -4 6 C-4.89386164 8.54775306 -4.89386164 8.54775306 -5 11 C-5.33 11 -5.66 11 -6 11 C-6.04241723 8.66705225 -6.04092937 6.33297433 -6 4 C-5 3 -5 3 -2.4375 2.9375 C-1.2309375 2.9684375 -1.2309375 2.9684375 0 3 C0 2.01 0 1.02 0 0 Z " fill="#8B8B8B" transform="translate(211,168)"/>
<path d="M0 0 C0.99 0 1.98 0 3 0 C3 2.31 3 4.62 3 7 C2.01 6.67 1.02 6.34 0 6 C0 4.02 0 2.04 0 0 Z " fill="#4D4D4D" transform="translate(152,172)"/>
</svg>
